<svg width="92" height="93" viewBox="0 0 92 93" fill="none" xmlns="http://www.w3.org/2000/svg">
<circle cx="46" cy="46.8623" r="38" stroke="#0B0516" stroke-width="4"/>
<path fill-rule="evenodd" clip-rule="evenodd" d="M46 86.8623C68.0914 86.8623 86 68.9537 86 46.8623C86 24.7709 68.0914 6.8623 46 6.8623C23.9086 6.8623 6 24.7709 6 46.8623C6 68.9537 23.9086 86.8623 46 86.8623ZM46 92.8623C71.4051 92.8623 92 72.2674 92 46.8623C92 21.4572 71.4051 0.862305 46 0.862305C20.5949 0.862305 0 21.4572 0 46.8623C0 72.2674 20.5949 92.8623 46 92.8623Z" fill="url(#paint0_linear_1_4)"/>
<defs>
<linearGradient id="paint0_linear_1_4" x1="46" y1="0.862305" x2="46" y2="92.8623" gradientUnits="userSpaceOnUse">
<stop offset="0.240057" stop-color="#1F0B35"/>
<stop offset="1" stop-color="white"/>
</linearGradient>
</defs>
</svg>
