<svg width="282" height="282" viewBox="0 0 282 282" fill="none" xmlns="http://www.w3.org/2000/svg">
<g filter="url(#filter0_i_1_7)">
<path d="M211 262.3C190.4 274.2 166.5 281 141 281V181C148.3 181 155.1 179 161 175.6L211 262.3Z" fill="url(#paint0_linear_1_7)"/>
</g>
<path d="M211 262.3C190.4 274.2 166.5 281 141 281V181C148.3 181 155.1 179 161 175.6L211 262.3Z" stroke="#0A0B1E" stroke-miterlimit="10"/>
<g filter="url(#filter1_i_1_7)">
<path d="M141 181V281C115.5 281 91.6 274.2 71 262.3L121 175.7C126.9 179 133.7 181 141 181Z" fill="url(#paint1_linear_1_7)"/>
</g>
<path d="M141 181V281C115.5 281 91.6 274.2 71 262.3L121 175.7C126.9 179 133.7 181 141 181Z" stroke="#0A0B1E" stroke-miterlimit="10"/>
<g filter="url(#filter2_i_1_7)">
<path d="M121 175.6L71.0002 262.2C49.8002 249.9 32.0002 232.2 19.7002 210.9L106.3 160.9C109.9 167.1 114.9 172.1 121 175.6Z" fill="url(#paint2_linear_1_7)"/>
</g>
<path d="M121 175.6L71.0002 262.2C49.8002 249.9 32.0002 232.2 19.7002 210.9L106.3 160.9C109.9 167.1 114.9 172.1 121 175.6Z" stroke="#0A0B1E" stroke-miterlimit="10"/>
<g filter="url(#filter3_i_1_7)">
<path d="M106.3 161L19.7 211C7.8 190.4 1 166.5 1 141H101C101 148.3 103 155.1 106.3 161Z" fill="url(#paint3_linear_1_7)"/>
</g>
<path d="M106.3 161L19.7 211C7.8 190.4 1 166.5 1 141H101C101 148.3 103 155.1 106.3 161Z" stroke="#0A0B1E" stroke-miterlimit="10"/>
<g filter="url(#filter4_i_1_7)">
<path d="M106.3 121C102.9 126.9 101 133.7 101 141H1C1 115.5 7.8 91.6 19.7 71L106.3 121Z" fill="url(#paint4_linear_1_7)"/>
</g>
<path d="M106.3 121C102.9 126.9 101 133.7 101 141H1C1 115.5 7.8 91.6 19.7 71L106.3 121Z" stroke="#0A0B1E" stroke-miterlimit="10"/>
<g filter="url(#filter5_i_1_7)">
<path d="M121 106.3C114.9 109.8 109.9 114.9 106.3 121L19.7002 71C32.0002 49.8 49.7002 32 71.0002 19.7L121 106.3Z" fill="url(#paint5_linear_1_7)"/>
</g>
<path d="M121 106.3C114.9 109.8 109.9 114.9 106.3 121L19.7002 71C32.0002 49.8 49.7002 32 71.0002 19.7L121 106.3Z" stroke="#0A0B1E" stroke-miterlimit="10"/>
<g filter="url(#filter6_i_1_7)">
<path d="M141 1V101C133.7 101 126.9 103 121 106.3L71 19.7C91.6 7.8 115.5 1 141 1Z" fill="url(#paint6_linear_1_7)"/>
</g>
<path d="M141 1V101C133.7 101 126.9 103 121 106.3L71 19.7C91.6 7.8 115.5 1 141 1Z" stroke="#0A0B1E" stroke-miterlimit="10"/>
<g filter="url(#filter7_i_1_7)">
<path d="M211 19.7L161 106.3C155.1 102.9 148.3 101 141 101V1C166.5 1 190.4 7.8 211 19.7Z" fill="url(#paint7_linear_1_7)"/>
</g>
<path d="M211 19.7L161 106.3C155.1 102.9 148.3 101 141 101V1C166.5 1 190.4 7.8 211 19.7Z" stroke="#0A0B1E" stroke-miterlimit="10"/>
<g filter="url(#filter8_i_1_7)">
<path d="M262.3 71L175.7 121C172.2 114.9 167.1 109.9 161 106.3L211 19.7C232.3 32 250 49.8 262.3 71Z" fill="url(#paint8_linear_1_7)"/>
</g>
<path d="M262.3 71L175.7 121C172.2 114.9 167.1 109.9 161 106.3L211 19.7C232.3 32 250 49.8 262.3 71Z" stroke="#0A0B1E" stroke-miterlimit="10"/>
<g filter="url(#filter9_i_1_7)">
<path d="M281 141H181C181 133.7 179 126.9 175.7 121L262.3 71C274.2 91.6 281 115.5 281 141Z" fill="url(#paint9_linear_1_7)"/>
</g>
<path d="M281 141H181C181 133.7 179 126.9 175.7 121L262.3 71C274.2 91.6 281 115.5 281 141Z" stroke="#0A0B1E" stroke-miterlimit="10"/>
<g filter="url(#filter10_i_1_7)">
<path d="M281 141C281 166.5 274.2 190.4 262.3 211L175.7 161C179.1 155.1 181 148.3 181 141H281Z" fill="url(#paint10_linear_1_7)"/>
</g>
<path d="M281 141C281 166.5 274.2 190.4 262.3 211L175.7 161C179.1 155.1 181 148.3 181 141H281Z" stroke="#0A0B1E" stroke-miterlimit="10"/>
<g filter="url(#filter11_i_1_7)">
<path d="M262.3 211C250 232.2 232.3 250 211.1 262.3L161.1 175.7C167.2 172.2 172.2 167.1 175.8 161.1L262.3 211Z" fill="url(#paint11_linear_1_7)"/>
</g>
<path d="M262.3 211C250 232.2 232.3 250 211.1 262.3L161.1 175.7C167.2 172.2 172.2 167.1 175.8 161.1L262.3 211Z" stroke="#0A0B1E" stroke-miterlimit="10"/>
<defs>
<filter id="filter0_i_1_7" x="140.5" y="174.917" width="71.1827" height="138.583" filterUnits="userSpaceOnUse" color-interpolation-filters="sRGB">
<feFlood flood-opacity="0" result="BackgroundImageFix"/>
<feBlend mode="normal" in="SourceGraphic" in2="BackgroundImageFix" result="shape"/>
<feColorMatrix in="SourceAlpha" type="matrix" values="0 0 0 0 0 0 0 0 0 0 0 0 0 0 0 0 0 0 127 0" result="hardAlpha"/>
<feOffset dy="32"/>
<feGaussianBlur stdDeviation="16"/>
<feComposite in2="hardAlpha" operator="arithmetic" k2="-1" k3="1"/>
<feColorMatrix type="matrix" values="0 0 0 0 0 0 0 0 0 0 0 0 0 0 0 0 0 0 0.25 0"/>
<feBlend mode="normal" in2="shape" result="effect1_innerShadow_1_7"/>
</filter>
<filter id="filter1_i_1_7" x="70.317" y="175.023" width="71.183" height="138.477" filterUnits="userSpaceOnUse" color-interpolation-filters="sRGB">
<feFlood flood-opacity="0" result="BackgroundImageFix"/>
<feBlend mode="normal" in="SourceGraphic" in2="BackgroundImageFix" result="shape"/>
<feColorMatrix in="SourceAlpha" type="matrix" values="0 0 0 0 0 0 0 0 0 0 0 0 0 0 0 0 0 0 127 0" result="hardAlpha"/>
<feOffset dy="32"/>
<feGaussianBlur stdDeviation="16"/>
<feComposite in2="hardAlpha" operator="arithmetic" k2="-1" k3="1"/>
<feColorMatrix type="matrix" values="0 0 0 0 0 0 0 0 0 0 0 0 0 0 0 0 0 0 0.25 0"/>
<feBlend mode="normal" in2="shape" result="effect1_innerShadow_1_7"/>
</filter>
<filter id="filter2_i_1_7" x="19.0172" y="160.218" width="102.667" height="134.666" filterUnits="userSpaceOnUse" color-interpolation-filters="sRGB">
<feFlood flood-opacity="0" result="BackgroundImageFix"/>
<feBlend mode="normal" in="SourceGraphic" in2="BackgroundImageFix" result="shape"/>
<feColorMatrix in="SourceAlpha" type="matrix" values="0 0 0 0 0 0 0 0 0 0 0 0 0 0 0 0 0 0 127 0" result="hardAlpha"/>
<feOffset dy="32"/>
<feGaussianBlur stdDeviation="16"/>
<feComposite in2="hardAlpha" operator="arithmetic" k2="-1" k3="1"/>
<feColorMatrix type="matrix" values="0 0 0 0 0 0 0 0 0 0 0 0 0 0 0 0 0 0 0.25 0"/>
<feBlend mode="normal" in2="shape" result="effect1_innerShadow_1_7"/>
</filter>
<filter id="filter3_i_1_7" x="0.5" y="140.5" width="106.477" height="103.183" filterUnits="userSpaceOnUse" color-interpolation-filters="sRGB">
<feFlood flood-opacity="0" result="BackgroundImageFix"/>
<feBlend mode="normal" in="SourceGraphic" in2="BackgroundImageFix" result="shape"/>
<feColorMatrix in="SourceAlpha" type="matrix" values="0 0 0 0 0 0 0 0 0 0 0 0 0 0 0 0 0 0 127 0" result="hardAlpha"/>
<feOffset dy="32"/>
<feGaussianBlur stdDeviation="16"/>
<feComposite in2="hardAlpha" operator="arithmetic" k2="-1" k3="1"/>
<feColorMatrix type="matrix" values="0 0 0 0 0 0 0 0 0 0 0 0 0 0 0 0 0 0 0.25 0"/>
<feBlend mode="normal" in2="shape" result="effect1_innerShadow_1_7"/>
</filter>
<filter id="filter4_i_1_7" x="0.5" y="70.317" width="106.483" height="103.183" filterUnits="userSpaceOnUse" color-interpolation-filters="sRGB">
<feFlood flood-opacity="0" result="BackgroundImageFix"/>
<feBlend mode="normal" in="SourceGraphic" in2="BackgroundImageFix" result="shape"/>
<feColorMatrix in="SourceAlpha" type="matrix" values="0 0 0 0 0 0 0 0 0 0 0 0 0 0 0 0 0 0 127 0" result="hardAlpha"/>
<feOffset dy="32"/>
<feGaussianBlur stdDeviation="16"/>
<feComposite in2="hardAlpha" operator="arithmetic" k2="-1" k3="1"/>
<feColorMatrix type="matrix" values="0 0 0 0 0 0 0 0 0 0 0 0 0 0 0 0 0 0 0.25 0"/>
<feBlend mode="normal" in2="shape" result="effect1_innerShadow_1_7"/>
</filter>
<filter id="filter5_i_1_7" x="19.0163" y="19.017" width="102.668" height="134.664" filterUnits="userSpaceOnUse" color-interpolation-filters="sRGB">
<feFlood flood-opacity="0" result="BackgroundImageFix"/>
<feBlend mode="normal" in="SourceGraphic" in2="BackgroundImageFix" result="shape"/>
<feColorMatrix in="SourceAlpha" type="matrix" values="0 0 0 0 0 0 0 0 0 0 0 0 0 0 0 0 0 0 127 0" result="hardAlpha"/>
<feOffset dy="32"/>
<feGaussianBlur stdDeviation="16"/>
<feComposite in2="hardAlpha" operator="arithmetic" k2="-1" k3="1"/>
<feColorMatrix type="matrix" values="0 0 0 0 0 0 0 0 0 0 0 0 0 0 0 0 0 0 0.25 0"/>
<feBlend mode="normal" in2="shape" result="effect1_innerShadow_1_7"/>
</filter>
<filter id="filter6_i_1_7" x="70.317" y="0.5" width="71.183" height="138.477" filterUnits="userSpaceOnUse" color-interpolation-filters="sRGB">
<feFlood flood-opacity="0" result="BackgroundImageFix"/>
<feBlend mode="normal" in="SourceGraphic" in2="BackgroundImageFix" result="shape"/>
<feColorMatrix in="SourceAlpha" type="matrix" values="0 0 0 0 0 0 0 0 0 0 0 0 0 0 0 0 0 0 127 0" result="hardAlpha"/>
<feOffset dy="32"/>
<feGaussianBlur stdDeviation="16"/>
<feComposite in2="hardAlpha" operator="arithmetic" k2="-1" k3="1"/>
<feColorMatrix type="matrix" values="0 0 0 0 0 0 0 0 0 0 0 0 0 0 0 0 0 0 0.25 0"/>
<feBlend mode="normal" in2="shape" result="effect1_innerShadow_1_7"/>
</filter>
<filter id="filter7_i_1_7" x="140.5" y="0.5" width="71.183" height="138.483" filterUnits="userSpaceOnUse" color-interpolation-filters="sRGB">
<feFlood flood-opacity="0" result="BackgroundImageFix"/>
<feBlend mode="normal" in="SourceGraphic" in2="BackgroundImageFix" result="shape"/>
<feColorMatrix in="SourceAlpha" type="matrix" values="0 0 0 0 0 0 0 0 0 0 0 0 0 0 0 0 0 0 127 0" result="hardAlpha"/>
<feOffset dy="32"/>
<feGaussianBlur stdDeviation="16"/>
<feComposite in2="hardAlpha" operator="arithmetic" k2="-1" k3="1"/>
<feColorMatrix type="matrix" values="0 0 0 0 0 0 0 0 0 0 0 0 0 0 0 0 0 0 0.25 0"/>
<feBlend mode="normal" in2="shape" result="effect1_innerShadow_1_7"/>
</filter>
<filter id="filter8_i_1_7" x="160.319" y="19.017" width="102.665" height="134.667" filterUnits="userSpaceOnUse" color-interpolation-filters="sRGB">
<feFlood flood-opacity="0" result="BackgroundImageFix"/>
<feBlend mode="normal" in="SourceGraphic" in2="BackgroundImageFix" result="shape"/>
<feColorMatrix in="SourceAlpha" type="matrix" values="0 0 0 0 0 0 0 0 0 0 0 0 0 0 0 0 0 0 127 0" result="hardAlpha"/>
<feOffset dy="32"/>
<feGaussianBlur stdDeviation="16"/>
<feComposite in2="hardAlpha" operator="arithmetic" k2="-1" k3="1"/>
<feColorMatrix type="matrix" values="0 0 0 0 0 0 0 0 0 0 0 0 0 0 0 0 0 0 0.25 0"/>
<feBlend mode="normal" in2="shape" result="effect1_innerShadow_1_7"/>
</filter>
<filter id="filter9_i_1_7" x="175.023" y="70.317" width="106.477" height="103.183" filterUnits="userSpaceOnUse" color-interpolation-filters="sRGB">
<feFlood flood-opacity="0" result="BackgroundImageFix"/>
<feBlend mode="normal" in="SourceGraphic" in2="BackgroundImageFix" result="shape"/>
<feColorMatrix in="SourceAlpha" type="matrix" values="0 0 0 0 0 0 0 0 0 0 0 0 0 0 0 0 0 0 127 0" result="hardAlpha"/>
<feOffset dy="32"/>
<feGaussianBlur stdDeviation="16"/>
<feComposite in2="hardAlpha" operator="arithmetic" k2="-1" k3="1"/>
<feColorMatrix type="matrix" values="0 0 0 0 0 0 0 0 0 0 0 0 0 0 0 0 0 0 0.25 0"/>
<feBlend mode="normal" in2="shape" result="effect1_innerShadow_1_7"/>
</filter>
<filter id="filter10_i_1_7" x="175.018" y="140.5" width="106.483" height="103.183" filterUnits="userSpaceOnUse" color-interpolation-filters="sRGB">
<feFlood flood-opacity="0" result="BackgroundImageFix"/>
<feBlend mode="normal" in="SourceGraphic" in2="BackgroundImageFix" result="shape"/>
<feColorMatrix in="SourceAlpha" type="matrix" values="0 0 0 0 0 0 0 0 0 0 0 0 0 0 0 0 0 0 127 0" result="hardAlpha"/>
<feOffset dy="32"/>
<feGaussianBlur stdDeviation="16"/>
<feComposite in2="hardAlpha" operator="arithmetic" k2="-1" k3="1"/>
<feColorMatrix type="matrix" values="0 0 0 0 0 0 0 0 0 0 0 0 0 0 0 0 0 0 0.25 0"/>
<feBlend mode="normal" in2="shape" result="effect1_innerShadow_1_7"/>
</filter>
<filter id="filter11_i_1_7" x="160.416" y="160.421" width="102.568" height="134.563" filterUnits="userSpaceOnUse" color-interpolation-filters="sRGB">
<feFlood flood-opacity="0" result="BackgroundImageFix"/>
<feBlend mode="normal" in="SourceGraphic" in2="BackgroundImageFix" result="shape"/>
<feColorMatrix in="SourceAlpha" type="matrix" values="0 0 0 0 0 0 0 0 0 0 0 0 0 0 0 0 0 0 127 0" result="hardAlpha"/>
<feOffset dy="32"/>
<feGaussianBlur stdDeviation="16"/>
<feComposite in2="hardAlpha" operator="arithmetic" k2="-1" k3="1"/>
<feColorMatrix type="matrix" values="0 0 0 0 0 0 0 0 0 0 0 0 0 0 0 0 0 0 0.25 0"/>
<feBlend mode="normal" in2="shape" result="effect1_innerShadow_1_7"/>
</filter>
<linearGradient id="paint0_linear_1_7" x1="176" y1="175.6" x2="176" y2="281" gradientUnits="userSpaceOnUse">
<stop stop-color="#AB00E8"/>
<stop offset="1" stop-color="#650089"/>
</linearGradient>
<linearGradient id="paint1_linear_1_7" x1="106" y1="175.7" x2="106" y2="281" gradientUnits="userSpaceOnUse">
<stop stop-color="#E905A0"/>
<stop offset="1" stop-color="#82197C"/>
</linearGradient>
<linearGradient id="paint2_linear_1_7" x1="70.3502" y1="160.9" x2="70.3502" y2="262.2" gradientUnits="userSpaceOnUse">
<stop stop-color="#6600E8"/>
<stop offset="1" stop-color="#28007B"/>
</linearGradient>
<linearGradient id="paint3_linear_1_7" x1="53.65" y1="141" x2="53.65" y2="211" gradientUnits="userSpaceOnUse">
<stop stop-color="#AB00E8"/>
<stop offset="1" stop-color="#370E5E"/>
</linearGradient>
<linearGradient id="paint4_linear_1_7" x1="53.65" y1="71" x2="53.65" y2="141" gradientUnits="userSpaceOnUse">
<stop stop-color="#E905A0"/>
<stop offset="1" stop-color="#82197C"/>
</linearGradient>
<linearGradient id="paint5_linear_1_7" x1="70.3502" y1="19.7" x2="70.3502" y2="121" gradientUnits="userSpaceOnUse">
<stop stop-color="#6600E8"/>
<stop offset="1" stop-color="#28007B"/>
</linearGradient>
<linearGradient id="paint6_linear_1_7" x1="106" y1="1" x2="106" y2="106.3" gradientUnits="userSpaceOnUse">
<stop stop-color="#AB00E8"/>
<stop offset="1" stop-color="#370E5E"/>
</linearGradient>
<linearGradient id="paint7_linear_1_7" x1="176" y1="1" x2="176" y2="106.3" gradientUnits="userSpaceOnUse">
<stop stop-color="#E905A0"/>
<stop offset="1" stop-color="#82197C"/>
</linearGradient>
<linearGradient id="paint8_linear_1_7" x1="211.65" y1="19.7" x2="211.65" y2="121" gradientUnits="userSpaceOnUse">
<stop stop-color="#6600E8"/>
<stop offset="1" stop-color="#28007B"/>
</linearGradient>
<linearGradient id="paint9_linear_1_7" x1="228.35" y1="71" x2="228.35" y2="141" gradientUnits="userSpaceOnUse">
<stop stop-color="#AB00E8"/>
<stop offset="1" stop-color="#370E5E"/>
</linearGradient>
<linearGradient id="paint10_linear_1_7" x1="228.35" y1="141" x2="228.35" y2="211" gradientUnits="userSpaceOnUse">
<stop stop-color="#E905A0"/>
<stop offset="1" stop-color="#82197C"/>
</linearGradient>
<linearGradient id="paint11_linear_1_7" x1="211.7" y1="161.1" x2="211.7" y2="262.3" gradientUnits="userSpaceOnUse">
<stop stop-color="#6600E8"/>
<stop offset="1" stop-color="#28007B"/>
</linearGradient>
</defs>
</svg>
