<svg width="32" height="32" viewBox="0 0 32 32" fill="none" xmlns="http://www.w3.org/2000/svg">
<path d="M16 7.86668C17.5467 7.86668 18.8 9.12001 18.8 10.6667C18.8 12.2133 17.5467 13.4667 16 13.4667C14.4534 13.4667 13.2 12.2133 13.2 10.6667C13.2 9.12001 14.4534 7.86668 16 7.86668ZM16 19.8667C19.96 19.8667 24.1334 21.8133 24.1334 22.6667V24.1333H7.86671V22.6667C7.86671 21.8133 12.04 19.8667 16 19.8667ZM16 5.33334C13.0534 5.33334 10.6667 7.72001 10.6667 10.6667C10.6667 13.6133 13.0534 16 16 16C18.9467 16 21.3334 13.6133 21.3334 10.6667C21.3334 7.72001 18.9467 5.33334 16 5.33334ZM16 17.3333C12.44 17.3333 5.33337 19.12 5.33337 22.6667V26.6667H26.6667V22.6667C26.6667 19.12 19.56 17.3333 16 17.3333Z" fill="url(#paint0_linear_1777_8480)"/>
<defs>
<linearGradient id="paint0_linear_1777_8480" x1="5.33337" y1="16" x2="26.6667" y2="16" gradientUnits="userSpaceOnUse">
<stop stop-color="#4E2FD2"/>
<stop offset="0.219223" stop-color="#9948CA"/>
<stop offset="0.500473" stop-color="#C7509B"/>
<stop offset="0.749982" stop-color="#D46A7B"/>
<stop offset="1" stop-color="#DFA55B"/>
</linearGradient>
</defs>
</svg>
