<svg width="396" height="228" viewBox="0 0 396 228" fill="none" xmlns="http://www.w3.org/2000/svg">
<path d="M209 60.6667H183.334V35H199.834V31.3334H183.334C181.317 31.3334 179.667 32.9834 179.667 35V60.6667C179.667 62.6834 181.317 64.3334 183.334 64.3334H209C211.017 64.3334 212.667 62.6834 212.667 60.6667V44.1667H209V60.6667ZM194.719 54.855L191.125 50.5284L186.084 57H206.25L199.76 48.365L194.719 54.855ZM212.667 31.3334V25.8334H209V31.3334H203.5C203.519 31.3517 203.5 35 203.5 35H209V40.4817C209.019 40.5 212.667 40.4817 212.667 40.4817V35H218.167V31.3334H212.667Z" fill="#BFC9DB"/>
<path d="M131.93 117.256C131.562 117.256 131.273 117.203 131.062 117.098V116.248C131.34 116.326 131.629 116.365 131.93 116.365C132.316 116.365 132.609 116.248 132.809 116.014C133.012 115.779 133.113 115.441 133.113 115V106.434H134.109V114.918C134.109 115.66 133.922 116.234 133.547 116.641C133.172 117.051 132.633 117.256 131.93 117.256ZM141.82 108.93C141.82 109.797 141.523 110.465 140.93 110.934C140.34 111.398 139.494 111.631 138.393 111.631H137.385V115H136.389V106.434H138.609C140.75 106.434 141.82 107.266 141.82 108.93ZM137.385 110.775H138.281C139.164 110.775 139.803 110.633 140.197 110.348C140.592 110.062 140.789 109.605 140.789 108.977C140.789 108.41 140.604 107.988 140.232 107.711C139.861 107.434 139.283 107.295 138.498 107.295H137.385V110.775ZM147.387 110.512H150.299V114.678C149.846 114.822 149.385 114.932 148.916 115.006C148.447 115.08 147.904 115.117 147.287 115.117C145.99 115.117 144.98 114.732 144.258 113.963C143.535 113.189 143.174 112.107 143.174 110.717C143.174 109.826 143.352 109.047 143.707 108.379C144.066 107.707 144.582 107.195 145.254 106.844C145.926 106.488 146.713 106.311 147.615 106.311C148.529 106.311 149.381 106.479 150.17 106.814L149.783 107.693C149.01 107.365 148.266 107.201 147.551 107.201C146.508 107.201 145.693 107.512 145.107 108.133C144.521 108.754 144.229 109.615 144.229 110.717C144.229 111.873 144.51 112.75 145.072 113.348C145.639 113.945 146.469 114.244 147.562 114.244C148.156 114.244 148.736 114.176 149.303 114.039V111.402H147.387V110.512ZM153.234 113.605L153.322 113.74C153.221 114.131 153.074 114.584 152.883 115.1C152.691 115.619 152.492 116.102 152.285 116.547H151.553C151.658 116.141 151.773 115.639 151.898 115.041C152.027 114.443 152.117 113.965 152.168 113.605H153.234ZM163.852 108.93C163.852 109.797 163.555 110.465 162.961 110.934C162.371 111.398 161.525 111.631 160.424 111.631H159.416V115H158.42V106.434H160.641C162.781 106.434 163.852 107.266 163.852 108.93ZM159.416 110.775H160.312C161.195 110.775 161.834 110.633 162.229 110.348C162.623 110.062 162.82 109.605 162.82 108.977C162.82 108.41 162.635 107.988 162.264 107.711C161.893 107.434 161.314 107.295 160.529 107.295H159.416V110.775ZM172.342 115H171.205L166.523 107.811H166.477C166.539 108.654 166.57 109.428 166.57 110.131V115H165.65V106.434H166.775L171.445 113.594H171.492C171.484 113.488 171.467 113.15 171.439 112.58C171.412 112.006 171.402 111.596 171.41 111.35V106.434H172.342V115ZM178.465 110.512H181.377V114.678C180.924 114.822 180.463 114.932 179.994 115.006C179.525 115.08 178.982 115.117 178.365 115.117C177.068 115.117 176.059 114.732 175.336 113.963C174.613 113.189 174.252 112.107 174.252 110.717C174.252 109.826 174.43 109.047 174.785 108.379C175.145 107.707 175.66 107.195 176.332 106.844C177.004 106.488 177.791 106.311 178.693 106.311C179.607 106.311 180.459 106.479 181.248 106.814L180.861 107.693C180.088 107.365 179.344 107.201 178.629 107.201C177.586 107.201 176.771 107.512 176.186 108.133C175.6 108.754 175.307 109.615 175.307 110.717C175.307 111.873 175.588 112.75 176.15 113.348C176.717 113.945 177.547 114.244 178.641 114.244C179.234 114.244 179.814 114.176 180.381 114.039V111.402H178.465V110.512ZM190.781 114.139H190.729C190.279 114.791 189.607 115.117 188.713 115.117C187.873 115.117 187.219 114.83 186.75 114.256C186.285 113.682 186.053 112.865 186.053 111.807C186.053 110.748 186.287 109.926 186.756 109.34C187.225 108.754 187.877 108.461 188.713 108.461C189.584 108.461 190.252 108.777 190.717 109.41H190.793L190.752 108.947L190.729 108.496V105.883H191.701V115H190.91L190.781 114.139ZM188.836 114.303C189.5 114.303 189.98 114.123 190.277 113.764C190.578 113.4 190.729 112.816 190.729 112.012V111.807C190.729 110.896 190.576 110.248 190.271 109.861C189.971 109.471 189.488 109.275 188.824 109.275C188.254 109.275 187.816 109.498 187.512 109.943C187.211 110.385 187.061 111.01 187.061 111.818C187.061 112.639 187.211 113.258 187.512 113.676C187.812 114.094 188.254 114.303 188.836 114.303ZM196.482 115.117C195.533 115.117 194.783 114.828 194.232 114.25C193.686 113.672 193.412 112.869 193.412 111.842C193.412 110.807 193.666 109.984 194.174 109.375C194.686 108.766 195.371 108.461 196.23 108.461C197.035 108.461 197.672 108.727 198.141 109.258C198.609 109.785 198.844 110.482 198.844 111.35V111.965H194.42C194.439 112.719 194.629 113.291 194.988 113.682C195.352 114.072 195.861 114.268 196.518 114.268C197.209 114.268 197.893 114.123 198.568 113.834V114.701C198.225 114.85 197.898 114.955 197.59 115.018C197.285 115.084 196.916 115.117 196.482 115.117ZM196.219 109.275C195.703 109.275 195.291 109.443 194.982 109.779C194.678 110.115 194.498 110.58 194.443 111.174H197.801C197.801 110.561 197.664 110.092 197.391 109.768C197.117 109.439 196.727 109.275 196.219 109.275ZM208.488 108.449C208.488 108.996 208.334 109.443 208.025 109.791C207.721 110.139 207.287 110.371 206.725 110.488V110.535C207.412 110.621 207.922 110.84 208.254 111.191C208.586 111.543 208.752 112.004 208.752 112.574C208.752 113.391 208.469 114.02 207.902 114.461C207.336 114.898 206.531 115.117 205.488 115.117C205.035 115.117 204.619 115.082 204.24 115.012C203.865 114.945 203.5 114.826 203.145 114.654V113.729C203.516 113.912 203.91 114.053 204.328 114.15C204.75 114.244 205.148 114.291 205.523 114.291C207.004 114.291 207.744 113.711 207.744 112.551C207.744 111.512 206.928 110.992 205.295 110.992H204.451V110.154H205.307C205.975 110.154 206.504 110.008 206.895 109.715C207.285 109.418 207.48 109.008 207.48 108.484C207.48 108.066 207.336 107.738 207.047 107.5C206.762 107.262 206.373 107.143 205.881 107.143C205.506 107.143 205.152 107.193 204.82 107.295C204.488 107.396 204.109 107.584 203.684 107.857L203.191 107.201C203.543 106.924 203.947 106.707 204.404 106.551C204.865 106.391 205.35 106.311 205.857 106.311C206.689 106.311 207.336 106.502 207.797 106.885C208.258 107.264 208.488 107.785 208.488 108.449ZM213.65 115H212.701V108.895C212.701 108.387 212.717 107.906 212.748 107.453C212.666 107.535 212.574 107.621 212.473 107.711C212.371 107.801 211.906 108.182 211.078 108.854L210.562 108.186L212.83 106.434H213.65V115ZM222.545 115H216.914V114.162L219.17 111.895C219.857 111.199 220.311 110.703 220.529 110.406C220.748 110.109 220.912 109.82 221.021 109.539C221.131 109.258 221.186 108.955 221.186 108.631C221.186 108.174 221.047 107.812 220.77 107.547C220.492 107.277 220.107 107.143 219.615 107.143C219.26 107.143 218.922 107.201 218.602 107.318C218.285 107.436 217.932 107.648 217.541 107.957L217.025 107.295C217.814 106.639 218.674 106.311 219.604 106.311C220.408 106.311 221.039 106.518 221.496 106.932C221.953 107.342 222.182 107.895 222.182 108.59C222.182 109.133 222.029 109.67 221.725 110.201C221.42 110.732 220.85 111.404 220.014 112.217L218.139 114.051V114.098H222.545V115ZM228.891 111.713L226.658 108.578H227.766L229.459 111.039L231.146 108.578H232.242L230.01 111.713L232.359 115H231.258L229.459 112.398L227.643 115H226.541L228.891 111.713ZM236.408 111.338C236.408 109.654 236.734 108.396 237.387 107.564C238.043 106.729 239.012 106.311 240.293 106.311C240.734 106.311 241.082 106.348 241.336 106.422V107.26C241.035 107.162 240.691 107.113 240.305 107.113C239.387 107.113 238.686 107.4 238.201 107.975C237.717 108.545 237.451 109.443 237.404 110.67H237.475C237.904 109.998 238.584 109.662 239.514 109.662C240.283 109.662 240.889 109.895 241.33 110.359C241.775 110.824 241.998 111.455 241.998 112.252C241.998 113.143 241.754 113.844 241.266 114.355C240.781 114.863 240.125 115.117 239.297 115.117C238.41 115.117 237.707 114.785 237.188 114.121C236.668 113.453 236.408 112.525 236.408 111.338ZM239.285 114.291C239.84 114.291 240.27 114.117 240.574 113.77C240.883 113.418 241.037 112.912 241.037 112.252C241.037 111.686 240.895 111.24 240.609 110.916C240.324 110.592 239.898 110.43 239.332 110.43C238.98 110.43 238.658 110.502 238.365 110.646C238.072 110.791 237.838 110.99 237.662 111.244C237.49 111.498 237.404 111.762 237.404 112.035C237.404 112.438 237.482 112.812 237.639 113.16C237.795 113.508 238.016 113.783 238.301 113.986C238.59 114.189 238.918 114.291 239.285 114.291ZM248.854 110.705C248.854 112.186 248.619 113.291 248.15 114.021C247.686 114.752 246.973 115.117 246.012 115.117C245.09 115.117 244.389 114.744 243.908 113.998C243.428 113.248 243.188 112.15 243.188 110.705C243.188 109.213 243.42 108.105 243.885 107.383C244.35 106.66 245.059 106.299 246.012 106.299C246.941 106.299 247.646 106.676 248.127 107.43C248.611 108.184 248.854 109.275 248.854 110.705ZM244.172 110.705C244.172 111.951 244.318 112.859 244.611 113.43C244.904 113.996 245.371 114.279 246.012 114.279C246.66 114.279 247.129 113.992 247.418 113.418C247.711 112.84 247.857 111.936 247.857 110.705C247.857 109.475 247.711 108.574 247.418 108.004C247.129 107.43 246.66 107.143 246.012 107.143C245.371 107.143 244.904 107.426 244.611 107.992C244.318 108.555 244.172 109.459 244.172 110.705ZM253.477 115.117C253.059 115.117 252.676 115.041 252.328 114.889C251.984 114.732 251.695 114.494 251.461 114.174H251.391C251.438 114.549 251.461 114.904 251.461 115.24V117.883H250.488V108.578H251.279L251.414 109.457H251.461C251.711 109.105 252.002 108.852 252.334 108.695C252.666 108.539 253.047 108.461 253.477 108.461C254.328 108.461 254.984 108.752 255.445 109.334C255.91 109.916 256.143 110.732 256.143 111.783C256.143 112.838 255.906 113.658 255.434 114.244C254.965 114.826 254.312 115.117 253.477 115.117ZM253.336 109.287C252.68 109.287 252.205 109.469 251.912 109.832C251.619 110.195 251.469 110.773 251.461 111.566V111.783C251.461 112.686 251.611 113.332 251.912 113.723C252.213 114.109 252.695 114.303 253.359 114.303C253.914 114.303 254.348 114.078 254.66 113.629C254.977 113.18 255.135 112.561 255.135 111.771C255.135 110.971 254.977 110.357 254.66 109.932C254.348 109.502 253.906 109.287 253.336 109.287ZM259.395 111.713L257.162 108.578H258.27L259.963 111.039L261.65 108.578H262.746L260.514 111.713L262.863 115H261.762L259.963 112.398L258.146 115H257.045L259.395 111.713Z" fill="#BFC9DB"/>
<path d="M122.094 144L120.953 140.828H116.586L115.469 144H113.5L117.773 132.531H119.805L124.078 144H122.094ZM120.461 139.219L119.391 136.109C119.312 135.901 119.203 135.573 119.062 135.125C118.927 134.677 118.833 134.349 118.781 134.141C118.641 134.781 118.435 135.482 118.164 136.242L117.133 139.219H120.461ZM129.773 135.203C130.143 135.203 130.448 135.229 130.688 135.281L130.508 136.992C130.247 136.93 129.977 136.898 129.695 136.898C128.961 136.898 128.365 137.138 127.906 137.617C127.453 138.096 127.227 138.719 127.227 139.484V144H125.391V135.359H126.828L127.07 136.883H127.164C127.451 136.367 127.823 135.958 128.281 135.656C128.745 135.354 129.242 135.203 129.773 135.203ZM136.68 135.203C137.049 135.203 137.354 135.229 137.594 135.281L137.414 136.992C137.154 136.93 136.883 136.898 136.602 136.898C135.867 136.898 135.271 137.138 134.812 137.617C134.359 138.096 134.133 138.719 134.133 139.484V144H132.297V135.359H133.734L133.977 136.883H134.07C134.357 136.367 134.729 135.958 135.188 135.656C135.651 135.354 136.148 135.203 136.68 135.203ZM144.609 144L144.242 142.797H144.18C143.763 143.323 143.344 143.682 142.922 143.875C142.5 144.062 141.958 144.156 141.297 144.156C140.448 144.156 139.784 143.927 139.305 143.469C138.831 143.01 138.594 142.362 138.594 141.523C138.594 140.633 138.924 139.961 139.586 139.508C140.247 139.055 141.255 138.807 142.609 138.766L144.102 138.719V138.258C144.102 137.706 143.971 137.294 143.711 137.023C143.456 136.747 143.057 136.609 142.516 136.609C142.073 136.609 141.648 136.674 141.242 136.805C140.836 136.935 140.445 137.089 140.07 137.266L139.477 135.953C139.945 135.708 140.458 135.523 141.016 135.398C141.573 135.268 142.099 135.203 142.594 135.203C143.693 135.203 144.521 135.443 145.078 135.922C145.641 136.401 145.922 137.154 145.922 138.18V144H144.609ZM141.875 142.75C142.542 142.75 143.076 142.565 143.477 142.195C143.883 141.82 144.086 141.297 144.086 140.625V139.875L142.977 139.922C142.112 139.953 141.482 140.099 141.086 140.359C140.695 140.615 140.5 141.008 140.5 141.539C140.5 141.924 140.615 142.224 140.844 142.438C141.073 142.646 141.417 142.75 141.875 142.75ZM154.289 141.539C154.289 142.383 153.982 143.031 153.367 143.484C152.753 143.932 151.872 144.156 150.727 144.156C149.576 144.156 148.651 143.982 147.953 143.633V142.047C148.969 142.516 149.914 142.75 150.789 142.75C151.919 142.75 152.484 142.409 152.484 141.727C152.484 141.508 152.422 141.326 152.297 141.18C152.172 141.034 151.966 140.883 151.68 140.727C151.393 140.57 150.995 140.393 150.484 140.195C149.49 139.81 148.815 139.424 148.461 139.039C148.112 138.654 147.938 138.154 147.938 137.539C147.938 136.799 148.234 136.227 148.828 135.82C149.427 135.409 150.24 135.203 151.266 135.203C152.281 135.203 153.242 135.409 154.148 135.82L153.555 137.203C152.622 136.818 151.839 136.625 151.203 136.625C150.234 136.625 149.75 136.901 149.75 137.453C149.75 137.724 149.875 137.953 150.125 138.141C150.38 138.328 150.932 138.586 151.781 138.914C152.495 139.19 153.013 139.443 153.336 139.672C153.659 139.901 153.898 140.167 154.055 140.469C154.211 140.766 154.289 141.122 154.289 141.539ZM159.5 142.672C159.948 142.672 160.396 142.602 160.844 142.461V143.844C160.641 143.932 160.378 144.005 160.055 144.062C159.737 144.125 159.406 144.156 159.062 144.156C157.323 144.156 156.453 143.24 156.453 141.406V136.75H155.273V135.938L156.539 135.266L157.164 133.438H158.297V135.359H160.758V136.75H158.297V141.375C158.297 141.818 158.406 142.146 158.625 142.359C158.849 142.568 159.141 142.672 159.5 142.672ZM166.352 144.156C165.008 144.156 163.956 143.766 163.195 142.984C162.44 142.198 162.062 141.117 162.062 139.742C162.062 138.331 162.414 137.221 163.117 136.414C163.82 135.607 164.786 135.203 166.016 135.203C167.156 135.203 168.057 135.549 168.719 136.242C169.38 136.935 169.711 137.888 169.711 139.102V140.094H163.953C163.979 140.932 164.206 141.578 164.633 142.031C165.06 142.479 165.661 142.703 166.438 142.703C166.948 142.703 167.422 142.656 167.859 142.562C168.302 142.464 168.776 142.302 169.281 142.078V143.57C168.833 143.784 168.38 143.935 167.922 144.023C167.464 144.112 166.94 144.156 166.352 144.156ZM166.016 136.594C165.432 136.594 164.964 136.779 164.609 137.148C164.26 137.518 164.052 138.057 163.984 138.766H167.906C167.896 138.052 167.724 137.513 167.391 137.148C167.057 136.779 166.599 136.594 166.016 136.594ZM183.617 139.664C183.617 141.076 183.255 142.177 182.531 142.969C181.807 143.76 180.799 144.156 179.508 144.156C178.701 144.156 177.987 143.974 177.367 143.609C176.747 143.245 176.271 142.721 175.938 142.039C175.604 141.357 175.438 140.565 175.438 139.664C175.438 138.263 175.797 137.169 176.516 136.383C177.234 135.596 178.247 135.203 179.555 135.203C180.805 135.203 181.794 135.607 182.523 136.414C183.253 137.216 183.617 138.299 183.617 139.664ZM177.328 139.664C177.328 141.659 178.065 142.656 179.539 142.656C180.997 142.656 181.727 141.659 181.727 139.664C181.727 137.69 180.992 136.703 179.523 136.703C178.753 136.703 178.193 136.958 177.844 137.469C177.5 137.979 177.328 138.711 177.328 139.664ZM194.305 135.203C195.383 135.203 196.221 135.594 196.82 136.375C197.424 137.156 197.727 138.253 197.727 139.664C197.727 141.081 197.422 142.185 196.812 142.977C196.203 143.763 195.357 144.156 194.273 144.156C193.18 144.156 192.331 143.763 191.727 142.977H191.602L191.266 144H189.891V131.844H191.727V134.734C191.727 134.948 191.716 135.266 191.695 135.688C191.674 136.109 191.659 136.378 191.648 136.492H191.727C192.31 135.633 193.169 135.203 194.305 135.203ZM193.828 136.703C193.089 136.703 192.555 136.922 192.227 137.359C191.904 137.792 191.737 138.518 191.727 139.539V139.664C191.727 140.716 191.893 141.479 192.227 141.953C192.56 142.422 193.104 142.656 193.859 142.656C194.51 142.656 195.003 142.398 195.336 141.883C195.674 141.367 195.844 140.622 195.844 139.648C195.844 137.685 195.172 136.703 193.828 136.703ZM205.266 144L204.898 142.797H204.836C204.419 143.323 204 143.682 203.578 143.875C203.156 144.062 202.615 144.156 201.953 144.156C201.104 144.156 200.44 143.927 199.961 143.469C199.487 143.01 199.25 142.362 199.25 141.523C199.25 140.633 199.581 139.961 200.242 139.508C200.904 139.055 201.911 138.807 203.266 138.766L204.758 138.719V138.258C204.758 137.706 204.628 137.294 204.367 137.023C204.112 136.747 203.714 136.609 203.172 136.609C202.729 136.609 202.305 136.674 201.898 136.805C201.492 136.935 201.102 137.089 200.727 137.266L200.133 135.953C200.602 135.708 201.115 135.523 201.672 135.398C202.229 135.268 202.755 135.203 203.25 135.203C204.349 135.203 205.177 135.443 205.734 135.922C206.297 136.401 206.578 137.154 206.578 138.18V144H205.266ZM202.531 142.75C203.198 142.75 203.732 142.565 204.133 142.195C204.539 141.82 204.742 141.297 204.742 140.625V139.875L203.633 139.922C202.768 139.953 202.138 140.099 201.742 140.359C201.352 140.615 201.156 141.008 201.156 141.539C201.156 141.924 201.271 142.224 201.5 142.438C201.729 142.646 202.073 142.75 202.531 142.75ZM216.742 144H214.898V138.688C214.898 138.021 214.763 137.523 214.492 137.195C214.227 136.867 213.802 136.703 213.219 136.703C212.443 136.703 211.875 136.932 211.516 137.391C211.156 137.849 210.977 138.617 210.977 139.695V144H209.141V135.359H210.578L210.836 136.492H210.93C211.19 136.081 211.56 135.763 212.039 135.539C212.518 135.315 213.049 135.203 213.633 135.203C215.706 135.203 216.742 136.258 216.742 138.367V144ZM226.898 144H225.055V138.688C225.055 138.021 224.919 137.523 224.648 137.195C224.383 136.867 223.958 136.703 223.375 136.703C222.599 136.703 222.031 136.932 221.672 137.391C221.312 137.849 221.133 138.617 221.133 139.695V144H219.297V135.359H220.734L220.992 136.492H221.086C221.346 136.081 221.716 135.763 222.195 135.539C222.674 135.315 223.206 135.203 223.789 135.203C225.862 135.203 226.898 136.258 226.898 138.367V144ZM233.227 144.156C231.883 144.156 230.831 143.766 230.07 142.984C229.315 142.198 228.938 141.117 228.938 139.742C228.938 138.331 229.289 137.221 229.992 136.414C230.695 135.607 231.661 135.203 232.891 135.203C234.031 135.203 234.932 135.549 235.594 136.242C236.255 136.935 236.586 137.888 236.586 139.102V140.094H230.828C230.854 140.932 231.081 141.578 231.508 142.031C231.935 142.479 232.536 142.703 233.312 142.703C233.823 142.703 234.297 142.656 234.734 142.562C235.177 142.464 235.651 142.302 236.156 142.078V143.57C235.708 143.784 235.255 143.935 234.797 144.023C234.339 144.112 233.815 144.156 233.227 144.156ZM232.891 136.594C232.307 136.594 231.839 136.779 231.484 137.148C231.135 137.518 230.927 138.057 230.859 138.766H234.781C234.771 138.052 234.599 137.513 234.266 137.148C233.932 136.779 233.474 136.594 232.891 136.594ZM243.055 135.203C243.424 135.203 243.729 135.229 243.969 135.281L243.789 136.992C243.529 136.93 243.258 136.898 242.977 136.898C242.242 136.898 241.646 137.138 241.188 137.617C240.734 138.096 240.508 138.719 240.508 139.484V144H238.672V135.359H240.109L240.352 136.883H240.445C240.732 136.367 241.104 135.958 241.562 135.656C242.026 135.354 242.523 135.203 243.055 135.203ZM255.141 144L254.773 142.797H254.711C254.294 143.323 253.875 143.682 253.453 143.875C253.031 144.062 252.49 144.156 251.828 144.156C250.979 144.156 250.315 143.927 249.836 143.469C249.362 143.01 249.125 142.362 249.125 141.523C249.125 140.633 249.456 139.961 250.117 139.508C250.779 139.055 251.786 138.807 253.141 138.766L254.633 138.719V138.258C254.633 137.706 254.503 137.294 254.242 137.023C253.987 136.747 253.589 136.609 253.047 136.609C252.604 136.609 252.18 136.674 251.773 136.805C251.367 136.935 250.977 137.089 250.602 137.266L250.008 135.953C250.477 135.708 250.99 135.523 251.547 135.398C252.104 135.268 252.63 135.203 253.125 135.203C254.224 135.203 255.052 135.443 255.609 135.922C256.172 136.401 256.453 137.154 256.453 138.18V144H255.141ZM252.406 142.75C253.073 142.75 253.607 142.565 254.008 142.195C254.414 141.82 254.617 141.297 254.617 140.625V139.875L253.508 139.922C252.643 139.953 252.013 140.099 251.617 140.359C251.227 140.615 251.031 141.008 251.031 141.539C251.031 141.924 251.146 142.224 251.375 142.438C251.604 142.646 251.948 142.75 252.406 142.75ZM262.438 142.688C263.208 142.688 263.76 142.466 264.094 142.023C264.432 141.576 264.602 140.901 264.602 140V139.711C264.602 138.643 264.427 137.875 264.078 137.406C263.734 136.938 263.177 136.703 262.406 136.703C261.75 136.703 261.25 136.964 260.906 137.484C260.562 138.005 260.391 138.753 260.391 139.727C260.391 141.701 261.073 142.688 262.438 142.688ZM261.914 144.156C260.846 144.156 260.01 143.766 259.406 142.984C258.802 142.198 258.5 141.102 258.5 139.695C258.5 138.289 258.807 137.19 259.422 136.398C260.036 135.602 260.883 135.203 261.961 135.203C262.503 135.203 262.987 135.305 263.414 135.508C263.846 135.706 264.232 136.034 264.57 136.492H264.633L264.836 135.359H266.359V147.844H264.516V144.18C264.516 143.951 264.526 143.708 264.547 143.453C264.568 143.198 264.586 143.003 264.602 142.867H264.5C263.958 143.727 263.096 144.156 261.914 144.156ZM275.078 144L274.82 142.867H274.727C274.471 143.268 274.107 143.583 273.633 143.812C273.164 144.042 272.628 144.156 272.023 144.156C270.977 144.156 270.195 143.896 269.68 143.375C269.164 142.854 268.906 142.065 268.906 141.008V135.359H270.758V140.688C270.758 141.349 270.893 141.846 271.164 142.18C271.435 142.508 271.859 142.672 272.438 142.672C273.208 142.672 273.773 142.443 274.133 141.984C274.497 141.521 274.68 140.747 274.68 139.664V135.359H276.523V144H275.078ZM280.977 144H279.141V135.359H280.977V144ZM279.031 133.07C279.031 132.742 279.12 132.49 279.297 132.312C279.479 132.135 279.737 132.047 280.07 132.047C280.393 132.047 280.643 132.135 280.82 132.312C281.003 132.49 281.094 132.742 281.094 133.07C281.094 133.383 281.003 133.63 280.82 133.812C280.643 133.99 280.393 134.078 280.07 134.078C279.737 134.078 279.479 133.99 279.297 133.812C279.12 133.63 279.031 133.383 279.031 133.07Z" fill="#BFC9DB"/>
<path d="M197.074 167.783C197.074 168.83 196.811 169.648 196.283 170.238C195.756 170.824 195.027 171.117 194.098 171.117C193.523 171.117 193.014 170.982 192.568 170.713C192.123 170.443 191.779 170.057 191.537 169.553C191.295 169.049 191.174 168.459 191.174 167.783C191.174 166.736 191.436 165.922 191.959 165.34C192.482 164.754 193.209 164.461 194.139 164.461C195.037 164.461 195.75 164.76 196.277 165.357C196.809 165.955 197.074 166.764 197.074 167.783ZM192.182 167.783C192.182 168.604 192.346 169.229 192.674 169.658C193.002 170.088 193.484 170.303 194.121 170.303C194.758 170.303 195.24 170.09 195.568 169.664C195.9 169.234 196.066 168.607 196.066 167.783C196.066 166.967 195.9 166.348 195.568 165.926C195.24 165.5 194.754 165.287 194.109 165.287C193.473 165.287 192.992 165.496 192.668 165.914C192.344 166.332 192.182 166.955 192.182 167.783ZM199.699 164.578V168.744C199.699 169.268 199.818 169.658 200.057 169.916C200.295 170.174 200.668 170.303 201.176 170.303C201.848 170.303 202.338 170.119 202.646 169.752C202.959 169.385 203.115 168.785 203.115 167.953V164.578H204.088V171H203.285L203.145 170.139H203.092C202.893 170.455 202.615 170.697 202.26 170.865C201.908 171.033 201.506 171.117 201.053 171.117C200.271 171.117 199.686 170.932 199.295 170.561C198.908 170.189 198.715 169.596 198.715 168.779V164.578H199.699Z" fill="#7F8896"/>
<path d="M53.0938 196.898C53.0938 197.914 52.7266 198.711 51.9922 199.289C51.2578 199.867 50.2448 200.156 48.9531 200.156C47.6615 200.156 46.6042 199.956 45.7812 199.555V197.789C46.3021 198.034 46.8542 198.227 47.4375 198.367C48.026 198.508 48.5729 198.578 49.0781 198.578C49.8177 198.578 50.362 198.438 50.7109 198.156C51.0651 197.875 51.2422 197.497 51.2422 197.023C51.2422 196.596 51.0807 196.234 50.7578 195.938C50.4349 195.641 49.7682 195.289 48.7578 194.883C47.7161 194.461 46.9818 193.979 46.5547 193.438C46.1276 192.896 45.9141 192.245 45.9141 191.484C45.9141 190.531 46.2526 189.781 46.9297 189.234C47.6068 188.688 48.5156 188.414 49.6562 188.414C50.75 188.414 51.8385 188.654 52.9219 189.133L52.3281 190.656C51.3125 190.229 50.4062 190.016 49.6094 190.016C49.0052 190.016 48.5469 190.148 48.2344 190.414C47.9219 190.674 47.7656 191.021 47.7656 191.453C47.7656 191.75 47.8281 192.005 47.9531 192.219C48.0781 192.427 48.2839 192.625 48.5703 192.812C48.8568 193 49.3724 193.247 50.1172 193.555C50.9557 193.904 51.5703 194.229 51.9609 194.531C52.3516 194.833 52.638 195.174 52.8203 195.555C53.0026 195.935 53.0938 196.383 53.0938 196.898ZM58.8828 200.156C57.5391 200.156 56.487 199.766 55.7266 198.984C54.9714 198.198 54.5938 197.117 54.5938 195.742C54.5938 194.331 54.9453 193.221 55.6484 192.414C56.3516 191.607 57.3177 191.203 58.5469 191.203C59.6875 191.203 60.5885 191.549 61.25 192.242C61.9115 192.935 62.2422 193.888 62.2422 195.102V196.094H56.4844C56.5104 196.932 56.737 197.578 57.1641 198.031C57.5911 198.479 58.1927 198.703 58.9688 198.703C59.4792 198.703 59.9531 198.656 60.3906 198.562C60.8333 198.464 61.3073 198.302 61.8125 198.078V199.57C61.3646 199.784 60.9115 199.935 60.4531 200.023C59.9948 200.112 59.4714 200.156 58.8828 200.156ZM58.5469 192.594C57.9635 192.594 57.4948 192.779 57.1406 193.148C56.7917 193.518 56.5833 194.057 56.5156 194.766H60.4375C60.4271 194.052 60.2552 193.513 59.9219 193.148C59.5885 192.779 59.1302 192.594 58.5469 192.594ZM66.1641 200H64.3281V187.844H66.1641V200ZM72.5703 200.156C71.2266 200.156 70.1745 199.766 69.4141 198.984C68.6589 198.198 68.2812 197.117 68.2812 195.742C68.2812 194.331 68.6328 193.221 69.3359 192.414C70.0391 191.607 71.0052 191.203 72.2344 191.203C73.375 191.203 74.276 191.549 74.9375 192.242C75.599 192.935 75.9297 193.888 75.9297 195.102V196.094H70.1719C70.1979 196.932 70.4245 197.578 70.8516 198.031C71.2786 198.479 71.8802 198.703 72.6562 198.703C73.1667 198.703 73.6406 198.656 74.0781 198.562C74.5208 198.464 74.9948 198.302 75.5 198.078V199.57C75.0521 199.784 74.599 199.935 74.1406 200.023C73.6823 200.112 73.1589 200.156 72.5703 200.156ZM72.2344 192.594C71.651 192.594 71.1823 192.779 70.8281 193.148C70.4792 193.518 70.2708 194.057 70.2031 194.766H74.125C74.1146 194.052 73.9427 193.513 73.6094 193.148C73.276 192.779 72.8177 192.594 72.2344 192.594ZM81.5 200.156C80.1927 200.156 79.1979 199.776 78.5156 199.016C77.8385 198.25 77.5 197.154 77.5 195.727C77.5 194.273 77.8542 193.156 78.5625 192.375C79.276 191.594 80.3047 191.203 81.6484 191.203C82.5599 191.203 83.3802 191.372 84.1094 191.711L83.5547 193.188C82.7786 192.885 82.138 192.734 81.6328 192.734C80.138 192.734 79.3906 193.727 79.3906 195.711C79.3906 196.68 79.5755 197.409 79.9453 197.898C80.3203 198.383 80.8672 198.625 81.5859 198.625C82.4036 198.625 83.1771 198.422 83.9062 198.016V199.617C83.5781 199.81 83.2266 199.948 82.8516 200.031C82.4818 200.115 82.0312 200.156 81.5 200.156ZM87.7734 200H85.9375V191.359H87.7734V200ZM85.8281 189.07C85.8281 188.742 85.9167 188.49 86.0938 188.312C86.276 188.135 86.5339 188.047 86.8672 188.047C87.1901 188.047 87.4401 188.135 87.6172 188.312C87.7995 188.49 87.8906 188.742 87.8906 189.07C87.8906 189.383 87.7995 189.63 87.6172 189.812C87.4401 189.99 87.1901 190.078 86.8672 190.078C86.5339 190.078 86.276 189.99 86.0938 189.812C85.9167 189.63 85.8281 189.383 85.8281 189.07ZM98.0703 195.664C98.0703 197.076 97.7083 198.177 96.9844 198.969C96.2604 199.76 95.2526 200.156 93.9609 200.156C93.1536 200.156 92.4401 199.974 91.8203 199.609C91.2005 199.245 90.724 198.721 90.3906 198.039C90.0573 197.357 89.8906 196.565 89.8906 195.664C89.8906 194.263 90.25 193.169 90.9688 192.383C91.6875 191.596 92.7005 191.203 94.0078 191.203C95.2578 191.203 96.2474 191.607 96.9766 192.414C97.7057 193.216 98.0703 194.299 98.0703 195.664ZM91.7812 195.664C91.7812 197.659 92.5182 198.656 93.9922 198.656C95.4505 198.656 96.1797 197.659 96.1797 195.664C96.1797 193.69 95.4453 192.703 93.9766 192.703C93.2057 192.703 92.6458 192.958 92.2969 193.469C91.9531 193.979 91.7812 194.711 91.7812 195.664ZM107.789 200H105.945V194.688C105.945 194.021 105.81 193.523 105.539 193.195C105.273 192.867 104.849 192.703 104.266 192.703C103.49 192.703 102.922 192.932 102.562 193.391C102.203 193.849 102.023 194.617 102.023 195.695V200H100.188V191.359H101.625L101.883 192.492H101.977C102.237 192.081 102.607 191.763 103.086 191.539C103.565 191.315 104.096 191.203 104.68 191.203C106.753 191.203 107.789 192.258 107.789 194.367V200ZM114.117 200.156C112.773 200.156 111.721 199.766 110.961 198.984C110.206 198.198 109.828 197.117 109.828 195.742C109.828 194.331 110.18 193.221 110.883 192.414C111.586 191.607 112.552 191.203 113.781 191.203C114.922 191.203 115.823 191.549 116.484 192.242C117.146 192.935 117.477 193.888 117.477 195.102V196.094H111.719C111.745 196.932 111.971 197.578 112.398 198.031C112.826 198.479 113.427 198.703 114.203 198.703C114.714 198.703 115.188 198.656 115.625 198.562C116.068 198.464 116.542 198.302 117.047 198.078V199.57C116.599 199.784 116.146 199.935 115.688 200.023C115.229 200.112 114.706 200.156 114.117 200.156ZM113.781 192.594C113.198 192.594 112.729 192.779 112.375 193.148C112.026 193.518 111.818 194.057 111.75 194.766H115.672C115.661 194.052 115.49 193.513 115.156 193.148C114.823 192.779 114.365 192.594 113.781 192.594ZM131.383 195.664C131.383 197.076 131.021 198.177 130.297 198.969C129.573 199.76 128.565 200.156 127.273 200.156C126.466 200.156 125.753 199.974 125.133 199.609C124.513 199.245 124.036 198.721 123.703 198.039C123.37 197.357 123.203 196.565 123.203 195.664C123.203 194.263 123.562 193.169 124.281 192.383C125 191.596 126.013 191.203 127.32 191.203C128.57 191.203 129.56 191.607 130.289 192.414C131.018 193.216 131.383 194.299 131.383 195.664ZM125.094 195.664C125.094 197.659 125.831 198.656 127.305 198.656C128.763 198.656 129.492 197.659 129.492 195.664C129.492 193.69 128.758 192.703 127.289 192.703C126.518 192.703 125.958 192.958 125.609 193.469C125.266 193.979 125.094 194.711 125.094 195.664ZM143.062 200L142.695 198.797H142.633C142.216 199.323 141.797 199.682 141.375 199.875C140.953 200.062 140.411 200.156 139.75 200.156C138.901 200.156 138.237 199.927 137.758 199.469C137.284 199.01 137.047 198.362 137.047 197.523C137.047 196.633 137.378 195.961 138.039 195.508C138.701 195.055 139.708 194.807 141.062 194.766L142.555 194.719V194.258C142.555 193.706 142.424 193.294 142.164 193.023C141.909 192.747 141.51 192.609 140.969 192.609C140.526 192.609 140.102 192.674 139.695 192.805C139.289 192.935 138.898 193.089 138.523 193.266L137.93 191.953C138.398 191.708 138.911 191.523 139.469 191.398C140.026 191.268 140.552 191.203 141.047 191.203C142.146 191.203 142.974 191.443 143.531 191.922C144.094 192.401 144.375 193.154 144.375 194.18V200H143.062ZM140.328 198.75C140.995 198.75 141.529 198.565 141.93 198.195C142.336 197.82 142.539 197.297 142.539 196.625V195.875L141.43 195.922C140.565 195.953 139.935 196.099 139.539 196.359C139.148 196.615 138.953 197.008 138.953 197.539C138.953 197.924 139.068 198.224 139.297 198.438C139.526 198.646 139.87 198.75 140.328 198.75ZM151.32 191.203C151.69 191.203 151.995 191.229 152.234 191.281L152.055 192.992C151.794 192.93 151.523 192.898 151.242 192.898C150.508 192.898 149.911 193.138 149.453 193.617C149 194.096 148.773 194.719 148.773 195.484V200H146.938V191.359H148.375L148.617 192.883H148.711C148.997 192.367 149.37 191.958 149.828 191.656C150.292 191.354 150.789 191.203 151.32 191.203ZM157.266 198.688C158.036 198.688 158.589 198.466 158.922 198.023C159.26 197.576 159.43 196.901 159.43 196V195.711C159.43 194.643 159.255 193.875 158.906 193.406C158.562 192.938 158.005 192.703 157.234 192.703C156.578 192.703 156.078 192.964 155.734 193.484C155.391 194.005 155.219 194.753 155.219 195.727C155.219 197.701 155.901 198.688 157.266 198.688ZM156.742 200.156C155.674 200.156 154.839 199.766 154.234 198.984C153.63 198.198 153.328 197.102 153.328 195.695C153.328 194.289 153.635 193.19 154.25 192.398C154.865 191.602 155.711 191.203 156.789 191.203C157.331 191.203 157.815 191.305 158.242 191.508C158.674 191.706 159.06 192.034 159.398 192.492H159.461L159.664 191.359H161.188V203.844H159.344V200.18C159.344 199.951 159.354 199.708 159.375 199.453C159.396 199.198 159.414 199.003 159.43 198.867H159.328C158.786 199.727 157.924 200.156 156.742 200.156ZM169.906 200L169.648 198.867H169.555C169.299 199.268 168.935 199.583 168.461 199.812C167.992 200.042 167.456 200.156 166.852 200.156C165.805 200.156 165.023 199.896 164.508 199.375C163.992 198.854 163.734 198.065 163.734 197.008V191.359H165.586V196.688C165.586 197.349 165.721 197.846 165.992 198.18C166.263 198.508 166.688 198.672 167.266 198.672C168.036 198.672 168.602 198.443 168.961 197.984C169.326 197.521 169.508 196.747 169.508 195.664V191.359H171.352V200H169.906ZM175.805 200H173.969V191.359H175.805V200ZM173.859 189.07C173.859 188.742 173.948 188.49 174.125 188.312C174.307 188.135 174.565 188.047 174.898 188.047C175.221 188.047 175.471 188.135 175.648 188.312C175.831 188.49 175.922 188.742 175.922 189.07C175.922 189.383 175.831 189.63 175.648 189.812C175.471 189.99 175.221 190.078 174.898 190.078C174.565 190.078 174.307 189.99 174.125 189.812C173.948 189.63 173.859 189.383 173.859 189.07ZM180.406 200L177.125 191.359H179.062L180.82 196.383C181.122 197.227 181.305 197.909 181.367 198.43H181.43C181.477 198.055 181.659 197.372 181.977 196.383L183.734 191.359H185.688L182.391 200H180.406ZM194.664 195.664C194.664 197.076 194.302 198.177 193.578 198.969C192.854 199.76 191.846 200.156 190.555 200.156C189.747 200.156 189.034 199.974 188.414 199.609C187.794 199.245 187.318 198.721 186.984 198.039C186.651 197.357 186.484 196.565 186.484 195.664C186.484 194.263 186.844 193.169 187.562 192.383C188.281 191.596 189.294 191.203 190.602 191.203C191.852 191.203 192.841 191.607 193.57 192.414C194.299 193.216 194.664 194.299 194.664 195.664ZM188.375 195.664C188.375 197.659 189.112 198.656 190.586 198.656C192.044 198.656 192.773 197.659 192.773 195.664C192.773 193.69 192.039 192.703 190.57 192.703C189.799 192.703 189.24 192.958 188.891 193.469C188.547 193.979 188.375 194.711 188.375 195.664ZM208.539 200H206.695V194.688C206.695 194.021 206.56 193.523 206.289 193.195C206.023 192.867 205.599 192.703 205.016 192.703C204.24 192.703 203.672 192.932 203.312 193.391C202.953 193.849 202.773 194.617 202.773 195.695V200H200.938V191.359H202.375L202.633 192.492H202.727C202.987 192.081 203.357 191.763 203.836 191.539C204.315 191.315 204.846 191.203 205.43 191.203C207.503 191.203 208.539 192.258 208.539 194.367V200ZM218.758 195.664C218.758 197.076 218.396 198.177 217.672 198.969C216.948 199.76 215.94 200.156 214.648 200.156C213.841 200.156 213.128 199.974 212.508 199.609C211.888 199.245 211.411 198.721 211.078 198.039C210.745 197.357 210.578 196.565 210.578 195.664C210.578 194.263 210.938 193.169 211.656 192.383C212.375 191.596 213.388 191.203 214.695 191.203C215.945 191.203 216.935 191.607 217.664 192.414C218.393 193.216 218.758 194.299 218.758 195.664ZM212.469 195.664C212.469 197.659 213.206 198.656 214.68 198.656C216.138 198.656 216.867 197.659 216.867 195.664C216.867 193.69 216.133 192.703 214.664 192.703C213.893 192.703 213.333 192.958 212.984 193.469C212.641 193.979 212.469 194.711 212.469 195.664ZM230.836 197.539C230.836 198.383 230.529 199.031 229.914 199.484C229.299 199.932 228.419 200.156 227.273 200.156C226.122 200.156 225.198 199.982 224.5 199.633V198.047C225.516 198.516 226.461 198.75 227.336 198.75C228.466 198.75 229.031 198.409 229.031 197.727C229.031 197.508 228.969 197.326 228.844 197.18C228.719 197.034 228.513 196.883 228.227 196.727C227.94 196.57 227.542 196.393 227.031 196.195C226.036 195.81 225.362 195.424 225.008 195.039C224.659 194.654 224.484 194.154 224.484 193.539C224.484 192.799 224.781 192.227 225.375 191.82C225.974 191.409 226.786 191.203 227.812 191.203C228.828 191.203 229.789 191.409 230.695 191.82L230.102 193.203C229.169 192.818 228.385 192.625 227.75 192.625C226.781 192.625 226.297 192.901 226.297 193.453C226.297 193.724 226.422 193.953 226.672 194.141C226.927 194.328 227.479 194.586 228.328 194.914C229.042 195.19 229.56 195.443 229.883 195.672C230.206 195.901 230.445 196.167 230.602 196.469C230.758 196.766 230.836 197.122 230.836 197.539ZM236.602 200.156C235.258 200.156 234.206 199.766 233.445 198.984C232.69 198.198 232.312 197.117 232.312 195.742C232.312 194.331 232.664 193.221 233.367 192.414C234.07 191.607 235.036 191.203 236.266 191.203C237.406 191.203 238.307 191.549 238.969 192.242C239.63 192.935 239.961 193.888 239.961 195.102V196.094H234.203C234.229 196.932 234.456 197.578 234.883 198.031C235.31 198.479 235.911 198.703 236.688 198.703C237.198 198.703 237.672 198.656 238.109 198.562C238.552 198.464 239.026 198.302 239.531 198.078V199.57C239.083 199.784 238.63 199.935 238.172 200.023C237.714 200.112 237.19 200.156 236.602 200.156ZM236.266 192.594C235.682 192.594 235.214 192.779 234.859 193.148C234.51 193.518 234.302 194.057 234.234 194.766H238.156C238.146 194.052 237.974 193.513 237.641 193.148C237.307 192.779 236.849 192.594 236.266 192.594ZM248.141 200L247.883 198.867H247.789C247.534 199.268 247.169 199.583 246.695 199.812C246.227 200.042 245.69 200.156 245.086 200.156C244.039 200.156 243.258 199.896 242.742 199.375C242.227 198.854 241.969 198.065 241.969 197.008V191.359H243.82V196.688C243.82 197.349 243.956 197.846 244.227 198.18C244.497 198.508 244.922 198.672 245.5 198.672C246.271 198.672 246.836 198.443 247.195 197.984C247.56 197.521 247.742 196.747 247.742 195.664V191.359H249.586V200H248.141ZM259.844 200.156C258.536 200.156 257.542 199.776 256.859 199.016C256.182 198.25 255.844 197.154 255.844 195.727C255.844 194.273 256.198 193.156 256.906 192.375C257.62 191.594 258.648 191.203 259.992 191.203C260.904 191.203 261.724 191.372 262.453 191.711L261.898 193.188C261.122 192.885 260.482 192.734 259.977 192.734C258.482 192.734 257.734 193.727 257.734 195.711C257.734 196.68 257.919 197.409 258.289 197.898C258.664 198.383 259.211 198.625 259.93 198.625C260.747 198.625 261.521 198.422 262.25 198.016V199.617C261.922 199.81 261.57 199.948 261.195 200.031C260.826 200.115 260.375 200.156 259.844 200.156ZM271.945 195.664C271.945 197.076 271.583 198.177 270.859 198.969C270.135 199.76 269.128 200.156 267.836 200.156C267.029 200.156 266.315 199.974 265.695 199.609C265.076 199.245 264.599 198.721 264.266 198.039C263.932 197.357 263.766 196.565 263.766 195.664C263.766 194.263 264.125 193.169 264.844 192.383C265.562 191.596 266.576 191.203 267.883 191.203C269.133 191.203 270.122 191.607 270.852 192.414C271.581 193.216 271.945 194.299 271.945 195.664ZM265.656 195.664C265.656 197.659 266.393 198.656 267.867 198.656C269.326 198.656 270.055 197.659 270.055 195.664C270.055 193.69 269.32 192.703 267.852 192.703C267.081 192.703 266.521 192.958 266.172 193.469C265.828 193.979 265.656 194.711 265.656 195.664ZM281.344 200H279.5V194.672C279.5 194.01 279.375 193.518 279.125 193.195C278.875 192.867 278.484 192.703 277.953 192.703C277.245 192.703 276.724 192.935 276.391 193.398C276.062 193.857 275.898 194.622 275.898 195.695V200H274.062V191.359H275.5L275.758 192.492H275.852C276.091 192.081 276.438 191.763 276.891 191.539C277.349 191.315 277.852 191.203 278.398 191.203C279.727 191.203 280.607 191.656 281.039 192.562H281.164C281.419 192.135 281.779 191.802 282.242 191.562C282.706 191.323 283.237 191.203 283.836 191.203C284.867 191.203 285.617 191.464 286.086 191.984C286.56 192.505 286.797 193.299 286.797 194.367V200H284.961V194.672C284.961 194.01 284.833 193.518 284.578 193.195C284.328 192.867 283.938 192.703 283.406 192.703C282.693 192.703 282.169 192.927 281.836 193.375C281.508 193.818 281.344 194.5 281.344 195.422V200ZM293.742 200.156C292.648 200.156 291.799 199.763 291.195 198.977H291.086C291.159 199.706 291.195 200.148 291.195 200.305V203.844H289.359V191.359H290.844C290.885 191.521 290.971 191.906 291.102 192.516H291.195C291.768 191.641 292.628 191.203 293.773 191.203C294.852 191.203 295.69 191.594 296.289 192.375C296.893 193.156 297.195 194.253 297.195 195.664C297.195 197.076 296.888 198.177 296.273 198.969C295.664 199.76 294.82 200.156 293.742 200.156ZM293.297 192.703C292.568 192.703 292.034 192.917 291.695 193.344C291.362 193.771 291.195 194.453 291.195 195.391V195.664C291.195 196.716 291.362 197.479 291.695 197.953C292.029 198.422 292.573 198.656 293.328 198.656C293.964 198.656 294.453 198.396 294.797 197.875C295.141 197.354 295.312 196.612 295.312 195.648C295.312 194.68 295.141 193.948 294.797 193.453C294.458 192.953 293.958 192.703 293.297 192.703ZM305.422 200L305.164 198.867H305.07C304.815 199.268 304.451 199.583 303.977 199.812C303.508 200.042 302.971 200.156 302.367 200.156C301.32 200.156 300.539 199.896 300.023 199.375C299.508 198.854 299.25 198.065 299.25 197.008V191.359H301.102V196.688C301.102 197.349 301.237 197.846 301.508 198.18C301.779 198.508 302.203 198.672 302.781 198.672C303.552 198.672 304.117 198.443 304.477 197.984C304.841 197.521 305.023 196.747 305.023 195.664V191.359H306.867V200H305.422ZM312.703 198.672C313.151 198.672 313.599 198.602 314.047 198.461V199.844C313.844 199.932 313.581 200.005 313.258 200.062C312.94 200.125 312.609 200.156 312.266 200.156C310.526 200.156 309.656 199.24 309.656 197.406V192.75H308.477V191.938L309.742 191.266L310.367 189.438H311.5V191.359H313.961V192.75H311.5V197.375C311.5 197.818 311.609 198.146 311.828 198.359C312.052 198.568 312.344 198.672 312.703 198.672ZM321.188 200L320.82 198.797H320.758C320.341 199.323 319.922 199.682 319.5 199.875C319.078 200.062 318.536 200.156 317.875 200.156C317.026 200.156 316.362 199.927 315.883 199.469C315.409 199.01 315.172 198.362 315.172 197.523C315.172 196.633 315.503 195.961 316.164 195.508C316.826 195.055 317.833 194.807 319.188 194.766L320.68 194.719V194.258C320.68 193.706 320.549 193.294 320.289 193.023C320.034 192.747 319.635 192.609 319.094 192.609C318.651 192.609 318.227 192.674 317.82 192.805C317.414 192.935 317.023 193.089 316.648 193.266L316.055 191.953C316.523 191.708 317.036 191.523 317.594 191.398C318.151 191.268 318.677 191.203 319.172 191.203C320.271 191.203 321.099 191.443 321.656 191.922C322.219 192.401 322.5 193.154 322.5 194.18V200H321.188ZM318.453 198.75C319.12 198.75 319.654 198.565 320.055 198.195C320.461 197.82 320.664 197.297 320.664 196.625V195.875L319.555 195.922C318.69 195.953 318.06 196.099 317.664 196.359C317.273 196.615 317.078 197.008 317.078 197.539C317.078 197.924 317.193 198.224 317.422 198.438C317.651 198.646 317.995 198.75 318.453 198.75ZM327.977 200.156C326.898 200.156 326.057 199.766 325.453 198.984C324.849 198.203 324.547 197.107 324.547 195.695C324.547 194.279 324.852 193.177 325.461 192.391C326.076 191.599 326.924 191.203 328.008 191.203C329.143 191.203 330.008 191.622 330.602 192.461H330.695C330.607 191.841 330.562 191.352 330.562 190.992V187.844H332.406V200H330.969L330.648 198.867H330.562C329.974 199.727 329.112 200.156 327.977 200.156ZM328.469 198.672C329.224 198.672 329.773 198.461 330.117 198.039C330.461 197.612 330.638 196.922 330.648 195.969V195.711C330.648 194.622 330.471 193.849 330.117 193.391C329.763 192.932 329.208 192.703 328.453 192.703C327.807 192.703 327.31 192.966 326.961 193.492C326.612 194.013 326.438 194.758 326.438 195.727C326.438 196.685 326.607 197.417 326.945 197.922C327.284 198.422 327.792 198.672 328.469 198.672ZM342.695 195.664C342.695 197.076 342.333 198.177 341.609 198.969C340.885 199.76 339.878 200.156 338.586 200.156C337.779 200.156 337.065 199.974 336.445 199.609C335.826 199.245 335.349 198.721 335.016 198.039C334.682 197.357 334.516 196.565 334.516 195.664C334.516 194.263 334.875 193.169 335.594 192.383C336.312 191.596 337.326 191.203 338.633 191.203C339.883 191.203 340.872 191.607 341.602 192.414C342.331 193.216 342.695 194.299 342.695 195.664ZM336.406 195.664C336.406 197.659 337.143 198.656 338.617 198.656C340.076 198.656 340.805 197.659 340.805 195.664C340.805 193.69 340.07 192.703 338.602 192.703C337.831 192.703 337.271 192.958 336.922 193.469C336.578 193.979 336.406 194.711 336.406 195.664ZM349.195 191.203C349.565 191.203 349.87 191.229 350.109 191.281L349.93 192.992C349.669 192.93 349.398 192.898 349.117 192.898C348.383 192.898 347.786 193.138 347.328 193.617C346.875 194.096 346.648 194.719 346.648 195.484V200H344.812V191.359H346.25L346.492 192.883H346.586C346.872 192.367 347.245 191.958 347.703 191.656C348.167 191.354 348.664 191.203 349.195 191.203Z" fill="#3A85F7"/>
<path d="M45 201.602H350.398V202.398H45V201.602Z" fill="#3A85F7"/>
<rect x="2" y="1" width="392" height="226" rx="7" stroke="#BFC9DB" stroke-width="2" stroke-dasharray="2 2"/>
</svg>
