<svg width="394" height="172" viewBox="0 0 394 172" fill="none" xmlns="http://www.w3.org/2000/svg">
<path d="M208 60.6667H182.333V35H198.833V31.3334H182.333C180.317 31.3334 178.667 32.9834 178.667 35V60.6667C178.667 62.6834 180.317 64.3334 182.333 64.3334H208C210.017 64.3334 211.667 62.6834 211.667 60.6667V44.1667H208V60.6667ZM193.718 54.855L190.125 50.5284L185.083 57H205.25L198.76 48.365L193.718 54.855ZM211.667 31.3334V25.8334H208V31.3334H202.5C202.518 31.3517 202.5 35 202.5 35H208V40.4817C208.018 40.5 211.667 40.4817 211.667 40.4817V35H217.167V31.3334H211.667Z" fill="#BFC9DB"/>
<path d="M130.93 117.256C130.562 117.256 130.273 117.203 130.062 117.098V116.248C130.34 116.326 130.629 116.365 130.93 116.365C131.316 116.365 131.609 116.248 131.809 116.014C132.012 115.779 132.113 115.441 132.113 115V106.434H133.109V114.918C133.109 115.66 132.922 116.234 132.547 116.641C132.172 117.051 131.633 117.256 130.93 117.256ZM140.82 108.93C140.82 109.797 140.523 110.465 139.93 110.934C139.34 111.398 138.494 111.631 137.393 111.631H136.385V115H135.389V106.434H137.609C139.75 106.434 140.82 107.266 140.82 108.93ZM136.385 110.775H137.281C138.164 110.775 138.803 110.633 139.197 110.348C139.592 110.062 139.789 109.605 139.789 108.977C139.789 108.41 139.604 107.988 139.232 107.711C138.861 107.434 138.283 107.295 137.498 107.295H136.385V110.775ZM146.387 110.512H149.299V114.678C148.846 114.822 148.385 114.932 147.916 115.006C147.447 115.08 146.904 115.117 146.287 115.117C144.99 115.117 143.98 114.732 143.258 113.963C142.535 113.189 142.174 112.107 142.174 110.717C142.174 109.826 142.352 109.047 142.707 108.379C143.066 107.707 143.582 107.195 144.254 106.844C144.926 106.488 145.713 106.311 146.615 106.311C147.529 106.311 148.381 106.479 149.17 106.814L148.783 107.693C148.01 107.365 147.266 107.201 146.551 107.201C145.508 107.201 144.693 107.512 144.107 108.133C143.521 108.754 143.229 109.615 143.229 110.717C143.229 111.873 143.51 112.75 144.072 113.348C144.639 113.945 145.469 114.244 146.562 114.244C147.156 114.244 147.736 114.176 148.303 114.039V111.402H146.387V110.512ZM152.234 113.605L152.322 113.74C152.221 114.131 152.074 114.584 151.883 115.1C151.691 115.619 151.492 116.102 151.285 116.547H150.553C150.658 116.141 150.773 115.639 150.898 115.041C151.027 114.443 151.117 113.965 151.168 113.605H152.234ZM162.852 108.93C162.852 109.797 162.555 110.465 161.961 110.934C161.371 111.398 160.525 111.631 159.424 111.631H158.416V115H157.42V106.434H159.641C161.781 106.434 162.852 107.266 162.852 108.93ZM158.416 110.775H159.312C160.195 110.775 160.834 110.633 161.229 110.348C161.623 110.062 161.82 109.605 161.82 108.977C161.82 108.41 161.635 107.988 161.264 107.711C160.893 107.434 160.314 107.295 159.529 107.295H158.416V110.775ZM171.342 115H170.205L165.523 107.811H165.477C165.539 108.654 165.57 109.428 165.57 110.131V115H164.65V106.434H165.775L170.445 113.594H170.492C170.484 113.488 170.467 113.15 170.439 112.58C170.412 112.006 170.402 111.596 170.41 111.35V106.434H171.342V115ZM177.465 110.512H180.377V114.678C179.924 114.822 179.463 114.932 178.994 115.006C178.525 115.08 177.982 115.117 177.365 115.117C176.068 115.117 175.059 114.732 174.336 113.963C173.613 113.189 173.252 112.107 173.252 110.717C173.252 109.826 173.43 109.047 173.785 108.379C174.145 107.707 174.66 107.195 175.332 106.844C176.004 106.488 176.791 106.311 177.693 106.311C178.607 106.311 179.459 106.479 180.248 106.814L179.861 107.693C179.088 107.365 178.344 107.201 177.629 107.201C176.586 107.201 175.771 107.512 175.186 108.133C174.6 108.754 174.307 109.615 174.307 110.717C174.307 111.873 174.588 112.75 175.15 113.348C175.717 113.945 176.547 114.244 177.641 114.244C178.234 114.244 178.814 114.176 179.381 114.039V111.402H177.465V110.512ZM189.781 114.139H189.729C189.279 114.791 188.607 115.117 187.713 115.117C186.873 115.117 186.219 114.83 185.75 114.256C185.285 113.682 185.053 112.865 185.053 111.807C185.053 110.748 185.287 109.926 185.756 109.34C186.225 108.754 186.877 108.461 187.713 108.461C188.584 108.461 189.252 108.777 189.717 109.41H189.793L189.752 108.947L189.729 108.496V105.883H190.701V115H189.91L189.781 114.139ZM187.836 114.303C188.5 114.303 188.98 114.123 189.277 113.764C189.578 113.4 189.729 112.816 189.729 112.012V111.807C189.729 110.896 189.576 110.248 189.271 109.861C188.971 109.471 188.488 109.275 187.824 109.275C187.254 109.275 186.816 109.498 186.512 109.943C186.211 110.385 186.061 111.01 186.061 111.818C186.061 112.639 186.211 113.258 186.512 113.676C186.812 114.094 187.254 114.303 187.836 114.303ZM195.482 115.117C194.533 115.117 193.783 114.828 193.232 114.25C192.686 113.672 192.412 112.869 192.412 111.842C192.412 110.807 192.666 109.984 193.174 109.375C193.686 108.766 194.371 108.461 195.23 108.461C196.035 108.461 196.672 108.727 197.141 109.258C197.609 109.785 197.844 110.482 197.844 111.35V111.965H193.42C193.439 112.719 193.629 113.291 193.988 113.682C194.352 114.072 194.861 114.268 195.518 114.268C196.209 114.268 196.893 114.123 197.568 113.834V114.701C197.225 114.85 196.898 114.955 196.59 115.018C196.285 115.084 195.916 115.117 195.482 115.117ZM195.219 109.275C194.703 109.275 194.291 109.443 193.982 109.779C193.678 110.115 193.498 110.58 193.443 111.174H196.801C196.801 110.561 196.664 110.092 196.391 109.768C196.117 109.439 195.727 109.275 195.219 109.275ZM207.488 108.449C207.488 108.996 207.334 109.443 207.025 109.791C206.721 110.139 206.287 110.371 205.725 110.488V110.535C206.412 110.621 206.922 110.84 207.254 111.191C207.586 111.543 207.752 112.004 207.752 112.574C207.752 113.391 207.469 114.02 206.902 114.461C206.336 114.898 205.531 115.117 204.488 115.117C204.035 115.117 203.619 115.082 203.24 115.012C202.865 114.945 202.5 114.826 202.145 114.654V113.729C202.516 113.912 202.91 114.053 203.328 114.15C203.75 114.244 204.148 114.291 204.523 114.291C206.004 114.291 206.744 113.711 206.744 112.551C206.744 111.512 205.928 110.992 204.295 110.992H203.451V110.154H204.307C204.975 110.154 205.504 110.008 205.895 109.715C206.285 109.418 206.48 109.008 206.48 108.484C206.48 108.066 206.336 107.738 206.047 107.5C205.762 107.262 205.373 107.143 204.881 107.143C204.506 107.143 204.152 107.193 203.82 107.295C203.488 107.396 203.109 107.584 202.684 107.857L202.191 107.201C202.543 106.924 202.947 106.707 203.404 106.551C203.865 106.391 204.35 106.311 204.857 106.311C205.689 106.311 206.336 106.502 206.797 106.885C207.258 107.264 207.488 107.785 207.488 108.449ZM212.65 115H211.701V108.895C211.701 108.387 211.717 107.906 211.748 107.453C211.666 107.535 211.574 107.621 211.473 107.711C211.371 107.801 210.906 108.182 210.078 108.854L209.562 108.186L211.83 106.434H212.65V115ZM221.545 115H215.914V114.162L218.17 111.895C218.857 111.199 219.311 110.703 219.529 110.406C219.748 110.109 219.912 109.82 220.021 109.539C220.131 109.258 220.186 108.955 220.186 108.631C220.186 108.174 220.047 107.812 219.77 107.547C219.492 107.277 219.107 107.143 218.615 107.143C218.26 107.143 217.922 107.201 217.602 107.318C217.285 107.436 216.932 107.648 216.541 107.957L216.025 107.295C216.814 106.639 217.674 106.311 218.604 106.311C219.408 106.311 220.039 106.518 220.496 106.932C220.953 107.342 221.182 107.895 221.182 108.59C221.182 109.133 221.029 109.67 220.725 110.201C220.42 110.732 219.85 111.404 219.014 112.217L217.139 114.051V114.098H221.545V115ZM227.891 111.713L225.658 108.578H226.766L228.459 111.039L230.146 108.578H231.242L229.01 111.713L231.359 115H230.258L228.459 112.398L226.643 115H225.541L227.891 111.713ZM235.408 111.338C235.408 109.654 235.734 108.396 236.387 107.564C237.043 106.729 238.012 106.311 239.293 106.311C239.734 106.311 240.082 106.348 240.336 106.422V107.26C240.035 107.162 239.691 107.113 239.305 107.113C238.387 107.113 237.686 107.4 237.201 107.975C236.717 108.545 236.451 109.443 236.404 110.67H236.475C236.904 109.998 237.584 109.662 238.514 109.662C239.283 109.662 239.889 109.895 240.33 110.359C240.775 110.824 240.998 111.455 240.998 112.252C240.998 113.143 240.754 113.844 240.266 114.355C239.781 114.863 239.125 115.117 238.297 115.117C237.41 115.117 236.707 114.785 236.188 114.121C235.668 113.453 235.408 112.525 235.408 111.338ZM238.285 114.291C238.84 114.291 239.27 114.117 239.574 113.77C239.883 113.418 240.037 112.912 240.037 112.252C240.037 111.686 239.895 111.24 239.609 110.916C239.324 110.592 238.898 110.43 238.332 110.43C237.98 110.43 237.658 110.502 237.365 110.646C237.072 110.791 236.838 110.99 236.662 111.244C236.49 111.498 236.404 111.762 236.404 112.035C236.404 112.438 236.482 112.812 236.639 113.16C236.795 113.508 237.016 113.783 237.301 113.986C237.59 114.189 237.918 114.291 238.285 114.291ZM247.854 110.705C247.854 112.186 247.619 113.291 247.15 114.021C246.686 114.752 245.973 115.117 245.012 115.117C244.09 115.117 243.389 114.744 242.908 113.998C242.428 113.248 242.188 112.15 242.188 110.705C242.188 109.213 242.42 108.105 242.885 107.383C243.35 106.66 244.059 106.299 245.012 106.299C245.941 106.299 246.646 106.676 247.127 107.43C247.611 108.184 247.854 109.275 247.854 110.705ZM243.172 110.705C243.172 111.951 243.318 112.859 243.611 113.43C243.904 113.996 244.371 114.279 245.012 114.279C245.66 114.279 246.129 113.992 246.418 113.418C246.711 112.84 246.857 111.936 246.857 110.705C246.857 109.475 246.711 108.574 246.418 108.004C246.129 107.43 245.66 107.143 245.012 107.143C244.371 107.143 243.904 107.426 243.611 107.992C243.318 108.555 243.172 109.459 243.172 110.705ZM252.477 115.117C252.059 115.117 251.676 115.041 251.328 114.889C250.984 114.732 250.695 114.494 250.461 114.174H250.391C250.438 114.549 250.461 114.904 250.461 115.24V117.883H249.488V108.578H250.279L250.414 109.457H250.461C250.711 109.105 251.002 108.852 251.334 108.695C251.666 108.539 252.047 108.461 252.477 108.461C253.328 108.461 253.984 108.752 254.445 109.334C254.91 109.916 255.143 110.732 255.143 111.783C255.143 112.838 254.906 113.658 254.434 114.244C253.965 114.826 253.312 115.117 252.477 115.117ZM252.336 109.287C251.68 109.287 251.205 109.469 250.912 109.832C250.619 110.195 250.469 110.773 250.461 111.566V111.783C250.461 112.686 250.611 113.332 250.912 113.723C251.213 114.109 251.695 114.303 252.359 114.303C252.914 114.303 253.348 114.078 253.66 113.629C253.977 113.18 254.135 112.561 254.135 111.771C254.135 110.971 253.977 110.357 253.66 109.932C253.348 109.502 252.906 109.287 252.336 109.287ZM258.395 111.713L256.162 108.578H257.27L258.963 111.039L260.65 108.578H261.746L259.514 111.713L261.863 115H260.762L258.963 112.398L257.146 115H256.045L258.395 111.713Z" fill="#BFC9DB"/>
<path d="M52.0938 140.898C52.0938 141.914 51.7266 142.711 50.9922 143.289C50.2578 143.867 49.2448 144.156 47.9531 144.156C46.6615 144.156 45.6042 143.956 44.7812 143.555V141.789C45.3021 142.034 45.8542 142.227 46.4375 142.367C47.026 142.508 47.5729 142.578 48.0781 142.578C48.8177 142.578 49.362 142.438 49.7109 142.156C50.0651 141.875 50.2422 141.497 50.2422 141.023C50.2422 140.596 50.0807 140.234 49.7578 139.938C49.4349 139.641 48.7682 139.289 47.7578 138.883C46.7161 138.461 45.9818 137.979 45.5547 137.438C45.1276 136.896 44.9141 136.245 44.9141 135.484C44.9141 134.531 45.2526 133.781 45.9297 133.234C46.6068 132.688 47.5156 132.414 48.6562 132.414C49.75 132.414 50.8385 132.654 51.9219 133.133L51.3281 134.656C50.3125 134.229 49.4062 134.016 48.6094 134.016C48.0052 134.016 47.5469 134.148 47.2344 134.414C46.9219 134.674 46.7656 135.021 46.7656 135.453C46.7656 135.75 46.8281 136.005 46.9531 136.219C47.0781 136.427 47.2839 136.625 47.5703 136.812C47.8568 137 48.3724 137.247 49.1172 137.555C49.9557 137.904 50.5703 138.229 50.9609 138.531C51.3516 138.833 51.638 139.174 51.8203 139.555C52.0026 139.935 52.0938 140.383 52.0938 140.898ZM57.8828 144.156C56.5391 144.156 55.487 143.766 54.7266 142.984C53.9714 142.198 53.5938 141.117 53.5938 139.742C53.5938 138.331 53.9453 137.221 54.6484 136.414C55.3516 135.607 56.3177 135.203 57.5469 135.203C58.6875 135.203 59.5885 135.549 60.25 136.242C60.9115 136.935 61.2422 137.888 61.2422 139.102V140.094H55.4844C55.5104 140.932 55.737 141.578 56.1641 142.031C56.5911 142.479 57.1927 142.703 57.9688 142.703C58.4792 142.703 58.9531 142.656 59.3906 142.562C59.8333 142.464 60.3073 142.302 60.8125 142.078V143.57C60.3646 143.784 59.9115 143.935 59.4531 144.023C58.9948 144.112 58.4714 144.156 57.8828 144.156ZM57.5469 136.594C56.9635 136.594 56.4948 136.779 56.1406 137.148C55.7917 137.518 55.5833 138.057 55.5156 138.766H59.4375C59.4271 138.052 59.2552 137.513 58.9219 137.148C58.5885 136.779 58.1302 136.594 57.5469 136.594ZM65.1641 144H63.3281V131.844H65.1641V144ZM71.5703 144.156C70.2266 144.156 69.1745 143.766 68.4141 142.984C67.6589 142.198 67.2812 141.117 67.2812 139.742C67.2812 138.331 67.6328 137.221 68.3359 136.414C69.0391 135.607 70.0052 135.203 71.2344 135.203C72.375 135.203 73.276 135.549 73.9375 136.242C74.599 136.935 74.9297 137.888 74.9297 139.102V140.094H69.1719C69.1979 140.932 69.4245 141.578 69.8516 142.031C70.2786 142.479 70.8802 142.703 71.6562 142.703C72.1667 142.703 72.6406 142.656 73.0781 142.562C73.5208 142.464 73.9948 142.302 74.5 142.078V143.57C74.0521 143.784 73.599 143.935 73.1406 144.023C72.6823 144.112 72.1589 144.156 71.5703 144.156ZM71.2344 136.594C70.651 136.594 70.1823 136.779 69.8281 137.148C69.4792 137.518 69.2708 138.057 69.2031 138.766H73.125C73.1146 138.052 72.9427 137.513 72.6094 137.148C72.276 136.779 71.8177 136.594 71.2344 136.594ZM80.5 144.156C79.1927 144.156 78.1979 143.776 77.5156 143.016C76.8385 142.25 76.5 141.154 76.5 139.727C76.5 138.273 76.8542 137.156 77.5625 136.375C78.276 135.594 79.3047 135.203 80.6484 135.203C81.5599 135.203 82.3802 135.372 83.1094 135.711L82.5547 137.188C81.7786 136.885 81.138 136.734 80.6328 136.734C79.138 136.734 78.3906 137.727 78.3906 139.711C78.3906 140.68 78.5755 141.409 78.9453 141.898C79.3203 142.383 79.8672 142.625 80.5859 142.625C81.4036 142.625 82.1771 142.422 82.9062 142.016V143.617C82.5781 143.81 82.2266 143.948 81.8516 144.031C81.4818 144.115 81.0312 144.156 80.5 144.156ZM86.7734 144H84.9375V135.359H86.7734V144ZM84.8281 133.07C84.8281 132.742 84.9167 132.49 85.0938 132.312C85.276 132.135 85.5339 132.047 85.8672 132.047C86.1901 132.047 86.4401 132.135 86.6172 132.312C86.7995 132.49 86.8906 132.742 86.8906 133.07C86.8906 133.383 86.7995 133.63 86.6172 133.812C86.4401 133.99 86.1901 134.078 85.8672 134.078C85.5339 134.078 85.276 133.99 85.0938 133.812C84.9167 133.63 84.8281 133.383 84.8281 133.07ZM97.0703 139.664C97.0703 141.076 96.7083 142.177 95.9844 142.969C95.2604 143.76 94.2526 144.156 92.9609 144.156C92.1536 144.156 91.4401 143.974 90.8203 143.609C90.2005 143.245 89.724 142.721 89.3906 142.039C89.0573 141.357 88.8906 140.565 88.8906 139.664C88.8906 138.263 89.25 137.169 89.9688 136.383C90.6875 135.596 91.7005 135.203 93.0078 135.203C94.2578 135.203 95.2474 135.607 95.9766 136.414C96.7057 137.216 97.0703 138.299 97.0703 139.664ZM90.7812 139.664C90.7812 141.659 91.5182 142.656 92.9922 142.656C94.4505 142.656 95.1797 141.659 95.1797 139.664C95.1797 137.69 94.4453 136.703 92.9766 136.703C92.2057 136.703 91.6458 136.958 91.2969 137.469C90.9531 137.979 90.7812 138.711 90.7812 139.664ZM106.789 144H104.945V138.688C104.945 138.021 104.81 137.523 104.539 137.195C104.273 136.867 103.849 136.703 103.266 136.703C102.49 136.703 101.922 136.932 101.562 137.391C101.203 137.849 101.023 138.617 101.023 139.695V144H99.1875V135.359H100.625L100.883 136.492H100.977C101.237 136.081 101.607 135.763 102.086 135.539C102.565 135.315 103.096 135.203 103.68 135.203C105.753 135.203 106.789 136.258 106.789 138.367V144ZM113.117 144.156C111.773 144.156 110.721 143.766 109.961 142.984C109.206 142.198 108.828 141.117 108.828 139.742C108.828 138.331 109.18 137.221 109.883 136.414C110.586 135.607 111.552 135.203 112.781 135.203C113.922 135.203 114.823 135.549 115.484 136.242C116.146 136.935 116.477 137.888 116.477 139.102V140.094H110.719C110.745 140.932 110.971 141.578 111.398 142.031C111.826 142.479 112.427 142.703 113.203 142.703C113.714 142.703 114.188 142.656 114.625 142.562C115.068 142.464 115.542 142.302 116.047 142.078V143.57C115.599 143.784 115.146 143.935 114.688 144.023C114.229 144.112 113.706 144.156 113.117 144.156ZM112.781 136.594C112.198 136.594 111.729 136.779 111.375 137.148C111.026 137.518 110.818 138.057 110.75 138.766H114.672C114.661 138.052 114.49 137.513 114.156 137.148C113.823 136.779 113.365 136.594 112.781 136.594ZM130.383 139.664C130.383 141.076 130.021 142.177 129.297 142.969C128.573 143.76 127.565 144.156 126.273 144.156C125.466 144.156 124.753 143.974 124.133 143.609C123.513 143.245 123.036 142.721 122.703 142.039C122.37 141.357 122.203 140.565 122.203 139.664C122.203 138.263 122.562 137.169 123.281 136.383C124 135.596 125.013 135.203 126.32 135.203C127.57 135.203 128.56 135.607 129.289 136.414C130.018 137.216 130.383 138.299 130.383 139.664ZM124.094 139.664C124.094 141.659 124.831 142.656 126.305 142.656C127.763 142.656 128.492 141.659 128.492 139.664C128.492 137.69 127.758 136.703 126.289 136.703C125.518 136.703 124.958 136.958 124.609 137.469C124.266 137.979 124.094 138.711 124.094 139.664ZM142.062 144L141.695 142.797H141.633C141.216 143.323 140.797 143.682 140.375 143.875C139.953 144.062 139.411 144.156 138.75 144.156C137.901 144.156 137.237 143.927 136.758 143.469C136.284 143.01 136.047 142.362 136.047 141.523C136.047 140.633 136.378 139.961 137.039 139.508C137.701 139.055 138.708 138.807 140.062 138.766L141.555 138.719V138.258C141.555 137.706 141.424 137.294 141.164 137.023C140.909 136.747 140.51 136.609 139.969 136.609C139.526 136.609 139.102 136.674 138.695 136.805C138.289 136.935 137.898 137.089 137.523 137.266L136.93 135.953C137.398 135.708 137.911 135.523 138.469 135.398C139.026 135.268 139.552 135.203 140.047 135.203C141.146 135.203 141.974 135.443 142.531 135.922C143.094 136.401 143.375 137.154 143.375 138.18V144H142.062ZM139.328 142.75C139.995 142.75 140.529 142.565 140.93 142.195C141.336 141.82 141.539 141.297 141.539 140.625V139.875L140.43 139.922C139.565 139.953 138.935 140.099 138.539 140.359C138.148 140.615 137.953 141.008 137.953 141.539C137.953 141.924 138.068 142.224 138.297 142.438C138.526 142.646 138.87 142.75 139.328 142.75ZM150.32 135.203C150.69 135.203 150.995 135.229 151.234 135.281L151.055 136.992C150.794 136.93 150.523 136.898 150.242 136.898C149.508 136.898 148.911 137.138 148.453 137.617C148 138.096 147.773 138.719 147.773 139.484V144H145.938V135.359H147.375L147.617 136.883H147.711C147.997 136.367 148.37 135.958 148.828 135.656C149.292 135.354 149.789 135.203 150.32 135.203ZM156.266 142.688C157.036 142.688 157.589 142.466 157.922 142.023C158.26 141.576 158.43 140.901 158.43 140V139.711C158.43 138.643 158.255 137.875 157.906 137.406C157.562 136.938 157.005 136.703 156.234 136.703C155.578 136.703 155.078 136.964 154.734 137.484C154.391 138.005 154.219 138.753 154.219 139.727C154.219 141.701 154.901 142.688 156.266 142.688ZM155.742 144.156C154.674 144.156 153.839 143.766 153.234 142.984C152.63 142.198 152.328 141.102 152.328 139.695C152.328 138.289 152.635 137.19 153.25 136.398C153.865 135.602 154.711 135.203 155.789 135.203C156.331 135.203 156.815 135.305 157.242 135.508C157.674 135.706 158.06 136.034 158.398 136.492H158.461L158.664 135.359H160.188V147.844H158.344V144.18C158.344 143.951 158.354 143.708 158.375 143.453C158.396 143.198 158.414 143.003 158.43 142.867H158.328C157.786 143.727 156.924 144.156 155.742 144.156ZM168.906 144L168.648 142.867H168.555C168.299 143.268 167.935 143.583 167.461 143.812C166.992 144.042 166.456 144.156 165.852 144.156C164.805 144.156 164.023 143.896 163.508 143.375C162.992 142.854 162.734 142.065 162.734 141.008V135.359H164.586V140.688C164.586 141.349 164.721 141.846 164.992 142.18C165.263 142.508 165.688 142.672 166.266 142.672C167.036 142.672 167.602 142.443 167.961 141.984C168.326 141.521 168.508 140.747 168.508 139.664V135.359H170.352V144H168.906ZM174.805 144H172.969V135.359H174.805V144ZM172.859 133.07C172.859 132.742 172.948 132.49 173.125 132.312C173.307 132.135 173.565 132.047 173.898 132.047C174.221 132.047 174.471 132.135 174.648 132.312C174.831 132.49 174.922 132.742 174.922 133.07C174.922 133.383 174.831 133.63 174.648 133.812C174.471 133.99 174.221 134.078 173.898 134.078C173.565 134.078 173.307 133.99 173.125 133.812C172.948 133.63 172.859 133.383 172.859 133.07ZM179.406 144L176.125 135.359H178.062L179.82 140.383C180.122 141.227 180.305 141.909 180.367 142.43H180.43C180.477 142.055 180.659 141.372 180.977 140.383L182.734 135.359H184.688L181.391 144H179.406ZM193.664 139.664C193.664 141.076 193.302 142.177 192.578 142.969C191.854 143.76 190.846 144.156 189.555 144.156C188.747 144.156 188.034 143.974 187.414 143.609C186.794 143.245 186.318 142.721 185.984 142.039C185.651 141.357 185.484 140.565 185.484 139.664C185.484 138.263 185.844 137.169 186.562 136.383C187.281 135.596 188.294 135.203 189.602 135.203C190.852 135.203 191.841 135.607 192.57 136.414C193.299 137.216 193.664 138.299 193.664 139.664ZM187.375 139.664C187.375 141.659 188.112 142.656 189.586 142.656C191.044 142.656 191.773 141.659 191.773 139.664C191.773 137.69 191.039 136.703 189.57 136.703C188.799 136.703 188.24 136.958 187.891 137.469C187.547 137.979 187.375 138.711 187.375 139.664ZM207.539 144H205.695V138.688C205.695 138.021 205.56 137.523 205.289 137.195C205.023 136.867 204.599 136.703 204.016 136.703C203.24 136.703 202.672 136.932 202.312 137.391C201.953 137.849 201.773 138.617 201.773 139.695V144H199.938V135.359H201.375L201.633 136.492H201.727C201.987 136.081 202.357 135.763 202.836 135.539C203.315 135.315 203.846 135.203 204.43 135.203C206.503 135.203 207.539 136.258 207.539 138.367V144ZM217.758 139.664C217.758 141.076 217.396 142.177 216.672 142.969C215.948 143.76 214.94 144.156 213.648 144.156C212.841 144.156 212.128 143.974 211.508 143.609C210.888 143.245 210.411 142.721 210.078 142.039C209.745 141.357 209.578 140.565 209.578 139.664C209.578 138.263 209.938 137.169 210.656 136.383C211.375 135.596 212.388 135.203 213.695 135.203C214.945 135.203 215.935 135.607 216.664 136.414C217.393 137.216 217.758 138.299 217.758 139.664ZM211.469 139.664C211.469 141.659 212.206 142.656 213.68 142.656C215.138 142.656 215.867 141.659 215.867 139.664C215.867 137.69 215.133 136.703 213.664 136.703C212.893 136.703 212.333 136.958 211.984 137.469C211.641 137.979 211.469 138.711 211.469 139.664ZM229.836 141.539C229.836 142.383 229.529 143.031 228.914 143.484C228.299 143.932 227.419 144.156 226.273 144.156C225.122 144.156 224.198 143.982 223.5 143.633V142.047C224.516 142.516 225.461 142.75 226.336 142.75C227.466 142.75 228.031 142.409 228.031 141.727C228.031 141.508 227.969 141.326 227.844 141.18C227.719 141.034 227.513 140.883 227.227 140.727C226.94 140.57 226.542 140.393 226.031 140.195C225.036 139.81 224.362 139.424 224.008 139.039C223.659 138.654 223.484 138.154 223.484 137.539C223.484 136.799 223.781 136.227 224.375 135.82C224.974 135.409 225.786 135.203 226.812 135.203C227.828 135.203 228.789 135.409 229.695 135.82L229.102 137.203C228.169 136.818 227.385 136.625 226.75 136.625C225.781 136.625 225.297 136.901 225.297 137.453C225.297 137.724 225.422 137.953 225.672 138.141C225.927 138.328 226.479 138.586 227.328 138.914C228.042 139.19 228.56 139.443 228.883 139.672C229.206 139.901 229.445 140.167 229.602 140.469C229.758 140.766 229.836 141.122 229.836 141.539ZM235.602 144.156C234.258 144.156 233.206 143.766 232.445 142.984C231.69 142.198 231.312 141.117 231.312 139.742C231.312 138.331 231.664 137.221 232.367 136.414C233.07 135.607 234.036 135.203 235.266 135.203C236.406 135.203 237.307 135.549 237.969 136.242C238.63 136.935 238.961 137.888 238.961 139.102V140.094H233.203C233.229 140.932 233.456 141.578 233.883 142.031C234.31 142.479 234.911 142.703 235.688 142.703C236.198 142.703 236.672 142.656 237.109 142.562C237.552 142.464 238.026 142.302 238.531 142.078V143.57C238.083 143.784 237.63 143.935 237.172 144.023C236.714 144.112 236.19 144.156 235.602 144.156ZM235.266 136.594C234.682 136.594 234.214 136.779 233.859 137.148C233.51 137.518 233.302 138.057 233.234 138.766H237.156C237.146 138.052 236.974 137.513 236.641 137.148C236.307 136.779 235.849 136.594 235.266 136.594ZM247.141 144L246.883 142.867H246.789C246.534 143.268 246.169 143.583 245.695 143.812C245.227 144.042 244.69 144.156 244.086 144.156C243.039 144.156 242.258 143.896 241.742 143.375C241.227 142.854 240.969 142.065 240.969 141.008V135.359H242.82V140.688C242.82 141.349 242.956 141.846 243.227 142.18C243.497 142.508 243.922 142.672 244.5 142.672C245.271 142.672 245.836 142.443 246.195 141.984C246.56 141.521 246.742 140.747 246.742 139.664V135.359H248.586V144H247.141ZM258.844 144.156C257.536 144.156 256.542 143.776 255.859 143.016C255.182 142.25 254.844 141.154 254.844 139.727C254.844 138.273 255.198 137.156 255.906 136.375C256.62 135.594 257.648 135.203 258.992 135.203C259.904 135.203 260.724 135.372 261.453 135.711L260.898 137.188C260.122 136.885 259.482 136.734 258.977 136.734C257.482 136.734 256.734 137.727 256.734 139.711C256.734 140.68 256.919 141.409 257.289 141.898C257.664 142.383 258.211 142.625 258.93 142.625C259.747 142.625 260.521 142.422 261.25 142.016V143.617C260.922 143.81 260.57 143.948 260.195 144.031C259.826 144.115 259.375 144.156 258.844 144.156ZM270.945 139.664C270.945 141.076 270.583 142.177 269.859 142.969C269.135 143.76 268.128 144.156 266.836 144.156C266.029 144.156 265.315 143.974 264.695 143.609C264.076 143.245 263.599 142.721 263.266 142.039C262.932 141.357 262.766 140.565 262.766 139.664C262.766 138.263 263.125 137.169 263.844 136.383C264.562 135.596 265.576 135.203 266.883 135.203C268.133 135.203 269.122 135.607 269.852 136.414C270.581 137.216 270.945 138.299 270.945 139.664ZM264.656 139.664C264.656 141.659 265.393 142.656 266.867 142.656C268.326 142.656 269.055 141.659 269.055 139.664C269.055 137.69 268.32 136.703 266.852 136.703C266.081 136.703 265.521 136.958 265.172 137.469C264.828 137.979 264.656 138.711 264.656 139.664ZM280.344 144H278.5V138.672C278.5 138.01 278.375 137.518 278.125 137.195C277.875 136.867 277.484 136.703 276.953 136.703C276.245 136.703 275.724 136.935 275.391 137.398C275.062 137.857 274.898 138.622 274.898 139.695V144H273.062V135.359H274.5L274.758 136.492H274.852C275.091 136.081 275.438 135.763 275.891 135.539C276.349 135.315 276.852 135.203 277.398 135.203C278.727 135.203 279.607 135.656 280.039 136.562H280.164C280.419 136.135 280.779 135.802 281.242 135.562C281.706 135.323 282.237 135.203 282.836 135.203C283.867 135.203 284.617 135.464 285.086 135.984C285.56 136.505 285.797 137.299 285.797 138.367V144H283.961V138.672C283.961 138.01 283.833 137.518 283.578 137.195C283.328 136.867 282.938 136.703 282.406 136.703C281.693 136.703 281.169 136.927 280.836 137.375C280.508 137.818 280.344 138.5 280.344 139.422V144ZM292.742 144.156C291.648 144.156 290.799 143.763 290.195 142.977H290.086C290.159 143.706 290.195 144.148 290.195 144.305V147.844H288.359V135.359H289.844C289.885 135.521 289.971 135.906 290.102 136.516H290.195C290.768 135.641 291.628 135.203 292.773 135.203C293.852 135.203 294.69 135.594 295.289 136.375C295.893 137.156 296.195 138.253 296.195 139.664C296.195 141.076 295.888 142.177 295.273 142.969C294.664 143.76 293.82 144.156 292.742 144.156ZM292.297 136.703C291.568 136.703 291.034 136.917 290.695 137.344C290.362 137.771 290.195 138.453 290.195 139.391V139.664C290.195 140.716 290.362 141.479 290.695 141.953C291.029 142.422 291.573 142.656 292.328 142.656C292.964 142.656 293.453 142.396 293.797 141.875C294.141 141.354 294.312 140.612 294.312 139.648C294.312 138.68 294.141 137.948 293.797 137.453C293.458 136.953 292.958 136.703 292.297 136.703ZM304.422 144L304.164 142.867H304.07C303.815 143.268 303.451 143.583 302.977 143.812C302.508 144.042 301.971 144.156 301.367 144.156C300.32 144.156 299.539 143.896 299.023 143.375C298.508 142.854 298.25 142.065 298.25 141.008V135.359H300.102V140.688C300.102 141.349 300.237 141.846 300.508 142.18C300.779 142.508 301.203 142.672 301.781 142.672C302.552 142.672 303.117 142.443 303.477 141.984C303.841 141.521 304.023 140.747 304.023 139.664V135.359H305.867V144H304.422ZM311.703 142.672C312.151 142.672 312.599 142.602 313.047 142.461V143.844C312.844 143.932 312.581 144.005 312.258 144.062C311.94 144.125 311.609 144.156 311.266 144.156C309.526 144.156 308.656 143.24 308.656 141.406V136.75H307.477V135.938L308.742 135.266L309.367 133.438H310.5V135.359H312.961V136.75H310.5V141.375C310.5 141.818 310.609 142.146 310.828 142.359C311.052 142.568 311.344 142.672 311.703 142.672ZM320.188 144L319.82 142.797H319.758C319.341 143.323 318.922 143.682 318.5 143.875C318.078 144.062 317.536 144.156 316.875 144.156C316.026 144.156 315.362 143.927 314.883 143.469C314.409 143.01 314.172 142.362 314.172 141.523C314.172 140.633 314.503 139.961 315.164 139.508C315.826 139.055 316.833 138.807 318.188 138.766L319.68 138.719V138.258C319.68 137.706 319.549 137.294 319.289 137.023C319.034 136.747 318.635 136.609 318.094 136.609C317.651 136.609 317.227 136.674 316.82 136.805C316.414 136.935 316.023 137.089 315.648 137.266L315.055 135.953C315.523 135.708 316.036 135.523 316.594 135.398C317.151 135.268 317.677 135.203 318.172 135.203C319.271 135.203 320.099 135.443 320.656 135.922C321.219 136.401 321.5 137.154 321.5 138.18V144H320.188ZM317.453 142.75C318.12 142.75 318.654 142.565 319.055 142.195C319.461 141.82 319.664 141.297 319.664 140.625V139.875L318.555 139.922C317.69 139.953 317.06 140.099 316.664 140.359C316.273 140.615 316.078 141.008 316.078 141.539C316.078 141.924 316.193 142.224 316.422 142.438C316.651 142.646 316.995 142.75 317.453 142.75ZM326.977 144.156C325.898 144.156 325.057 143.766 324.453 142.984C323.849 142.203 323.547 141.107 323.547 139.695C323.547 138.279 323.852 137.177 324.461 136.391C325.076 135.599 325.924 135.203 327.008 135.203C328.143 135.203 329.008 135.622 329.602 136.461H329.695C329.607 135.841 329.562 135.352 329.562 134.992V131.844H331.406V144H329.969L329.648 142.867H329.562C328.974 143.727 328.112 144.156 326.977 144.156ZM327.469 142.672C328.224 142.672 328.773 142.461 329.117 142.039C329.461 141.612 329.638 140.922 329.648 139.969V139.711C329.648 138.622 329.471 137.849 329.117 137.391C328.763 136.932 328.208 136.703 327.453 136.703C326.807 136.703 326.31 136.966 325.961 137.492C325.612 138.013 325.438 138.758 325.438 139.727C325.438 140.685 325.607 141.417 325.945 141.922C326.284 142.422 326.792 142.672 327.469 142.672ZM341.695 139.664C341.695 141.076 341.333 142.177 340.609 142.969C339.885 143.76 338.878 144.156 337.586 144.156C336.779 144.156 336.065 143.974 335.445 143.609C334.826 143.245 334.349 142.721 334.016 142.039C333.682 141.357 333.516 140.565 333.516 139.664C333.516 138.263 333.875 137.169 334.594 136.383C335.312 135.596 336.326 135.203 337.633 135.203C338.883 135.203 339.872 135.607 340.602 136.414C341.331 137.216 341.695 138.299 341.695 139.664ZM335.406 139.664C335.406 141.659 336.143 142.656 337.617 142.656C339.076 142.656 339.805 141.659 339.805 139.664C339.805 137.69 339.07 136.703 337.602 136.703C336.831 136.703 336.271 136.958 335.922 137.469C335.578 137.979 335.406 138.711 335.406 139.664ZM348.195 135.203C348.565 135.203 348.87 135.229 349.109 135.281L348.93 136.992C348.669 136.93 348.398 136.898 348.117 136.898C347.383 136.898 346.786 137.138 346.328 137.617C345.875 138.096 345.648 138.719 345.648 139.484V144H343.812V135.359H345.25L345.492 136.883H345.586C345.872 136.367 346.245 135.958 346.703 135.656C347.167 135.354 347.664 135.203 348.195 135.203Z" fill="#3A85F7"/>
<path d="M44 145.602H349.398V146.398H44V145.602Z" fill="#3A85F7"/>
<rect x="1" y="1" width="392" height="170" rx="7" stroke="#BFC9DB" stroke-width="2" stroke-dasharray="2 2"/>
</svg>
