<svg width="32" height="32" viewBox="0 0 32 32" fill="none" xmlns="http://www.w3.org/2000/svg">
<path d="M14.6665 22.6667H17.3332V21.3333H18.6665C19.3998 21.3333 19.9998 20.7333 19.9998 20V16C19.9998 15.2667 19.3998 14.6667 18.6665 14.6667H14.6665V13.3333H19.9998V10.6667H17.3332V9.33334H14.6665V10.6667H13.3332C12.5998 10.6667 11.9998 11.2667 11.9998 12V16C11.9998 16.7333 12.5998 17.3333 13.3332 17.3333H17.3332V18.6667H11.9998V21.3333H14.6665V22.6667ZM26.6665 5.33334H5.33317C3.85317 5.33334 2.67984 6.52001 2.67984 8.00001L2.6665 24C2.6665 25.48 3.85317 26.6667 5.33317 26.6667H26.6665C28.1465 26.6667 29.3332 25.48 29.3332 24V8.00001C29.3332 6.52001 28.1465 5.33334 26.6665 5.33334ZM26.6665 24H5.33317V8.00001H26.6665V24Z" fill="url(#paint0_linear_1799_5229)"/>
<defs>
<linearGradient id="paint0_linear_1799_5229" x1="2.6665" y1="16" x2="29.3332" y2="16" gradientUnits="userSpaceOnUse">
<stop stop-color="#4E2FD2"/>
<stop offset="0.219223" stop-color="#9948CA"/>
<stop offset="0.500473" stop-color="#C7509B"/>
<stop offset="0.749982" stop-color="#D46A7B"/>
<stop offset="1" stop-color="#DFA55B"/>
</linearGradient>
</defs>
</svg>
